<svg width="252" height="66" viewBox="0 0 252 66" fill="none" xmlns="http://www.w3.org/2000/svg">
<path d="M92.6875 50H85.1172L85.1641 43.6719H92.6875C94.25 43.6719 95.5703 43.2969 96.6484 42.5469C97.7422 41.7969 98.5703 40.6797 99.1328 39.1953C99.7109 37.6953 100 35.8516 100 33.6641V32.1875C100 30.5469 99.8359 29.1094 99.5078 27.875C99.1953 26.625 98.7266 25.586 98.1016 24.7578C97.4766 23.9141 96.6953 23.2813 95.7578 22.8594C94.8359 22.4375 93.7734 22.2266 92.5703 22.2266H84.9766V15.875H92.5703C94.8828 15.875 97 16.2735 98.9219 17.0703C100.859 17.8516 102.531 18.9766 103.938 20.4453C105.359 21.8985 106.453 23.625 107.219 25.625C108 27.6094 108.391 29.8125 108.391 32.2344V33.6641C108.391 36.0703 108 38.2735 107.219 40.2735C106.453 42.2735 105.367 44 103.961 45.4532C102.555 46.9063 100.891 48.0313 98.9688 48.8282C97.0625 49.6094 94.9688 50 92.6875 50ZM89.8281 15.875V50H81.6016V15.875H89.8281ZM111.8 37.5782V37.086C111.8 35.2266 112.066 33.5157 112.597 31.9532C113.128 30.375 113.91 29.0078 114.941 27.8516C115.972 26.6953 117.246 25.7969 118.761 25.1563C120.277 24.5 122.027 24.1719 124.011 24.1719C126.011 24.1719 127.769 24.5 129.285 25.1563C130.816 25.7969 132.097 26.6953 133.128 27.8516C134.16 29.0078 134.941 30.375 135.472 31.9532C136.003 33.5157 136.269 35.2266 136.269 37.086V37.5782C136.269 39.4219 136.003 41.1328 135.472 42.711C134.941 44.2735 134.16 45.6407 133.128 46.8125C132.097 47.9688 130.824 48.8672 129.308 49.5078C127.792 50.1485 126.042 50.4688 124.058 50.4688C122.074 50.4688 120.316 50.1485 118.785 49.5078C117.253 48.8672 115.972 47.9688 114.941 46.8125C113.91 45.6407 113.128 44.2735 112.597 42.711C112.066 41.1328 111.8 39.4219 111.8 37.5782ZM119.699 37.086V37.5782C119.699 38.5313 119.769 39.4219 119.91 40.25C120.05 41.0782 120.285 41.8047 120.613 42.4297C120.941 43.0391 121.386 43.5157 121.949 43.8594C122.511 44.2032 123.214 44.375 124.058 44.375C124.886 44.375 125.574 44.2032 126.121 43.8594C126.683 43.5157 127.128 43.0391 127.457 42.4297C127.785 41.8047 128.019 41.0782 128.16 40.25C128.3 39.4219 128.371 38.5313 128.371 37.5782V37.086C128.371 36.1641 128.3 35.2969 128.16 34.4844C128.019 33.6563 127.785 32.9297 127.457 32.3047C127.128 31.6641 126.683 31.1641 126.121 30.8047C125.558 30.4453 124.855 30.2657 124.011 30.2657C123.183 30.2657 122.488 30.4453 121.925 30.8047C121.378 31.1641 120.941 31.6641 120.613 32.3047C120.285 32.9297 120.05 33.6563 119.91 34.4844C119.769 35.2969 119.699 36.1641 119.699 37.086ZM152.546 50.4688C150.483 50.4688 148.64 50.1485 147.015 49.5078C145.39 48.8516 144.015 47.9532 142.89 46.8125C141.78 45.6719 140.929 44.3594 140.335 42.875C139.757 41.3907 139.468 39.8203 139.468 38.1641V37.2735C139.468 35.4141 139.726 33.6953 140.241 32.1172C140.757 30.5235 141.522 29.1328 142.538 27.9453C143.554 26.7578 144.827 25.836 146.358 25.1797C147.89 24.5078 149.671 24.1719 151.702 24.1719C153.499 24.1719 155.108 24.461 156.53 25.0391C157.952 25.6172 159.155 26.4453 160.14 27.5235C161.14 28.6016 161.897 29.9063 162.413 31.4375C162.944 32.9688 163.21 34.6875 163.21 36.5938V39.8047H142.491V34.8594H155.499V34.25C155.515 33.4063 155.366 32.6875 155.054 32.0938C154.757 31.5 154.319 31.0469 153.741 30.7344C153.163 30.4219 152.46 30.2657 151.632 30.2657C150.772 30.2657 150.062 30.4532 149.499 30.8282C148.952 31.2032 148.522 31.7188 148.21 32.375C147.913 33.0157 147.702 33.7578 147.577 34.6016C147.452 35.4453 147.39 36.336 147.39 37.2735V38.1641C147.39 39.1016 147.515 39.9532 147.765 40.7188C148.03 41.4844 148.405 42.1407 148.89 42.6875C149.39 43.2188 149.983 43.6328 150.671 43.9297C151.374 44.2266 152.171 44.375 153.062 44.375C154.14 44.375 155.202 44.1719 156.249 43.7657C157.296 43.3594 158.194 42.6875 158.944 41.75L162.53 46.0157C162.015 46.75 161.28 47.461 160.327 48.1485C159.39 48.836 158.265 49.3985 156.952 49.836C155.64 50.2578 154.171 50.4688 152.546 50.4688Z" fill="black"/>
<path d="M181.737 23.0469L173.417 50H164.581L177.12 15.875H182.721L181.737 23.0469ZM188.628 50L180.284 23.0469L179.206 15.875H184.878L197.487 50H188.628ZM188.299 37.2735V43.625H170.792V37.2735H188.299ZM206.943 29.5157V59.75H199.045V24.6407H206.404L206.943 29.5157ZM222.506 37.0157V37.5078C222.506 39.3516 222.295 41.0625 221.873 42.6407C221.451 44.2188 220.826 45.5938 219.998 46.7657C219.17 47.9375 218.139 48.8516 216.904 49.5078C215.686 50.1485 214.272 50.4688 212.662 50.4688C211.147 50.4688 209.842 50.1328 208.748 49.461C207.654 48.7891 206.74 47.8594 206.006 46.6719C205.272 45.4844 204.678 44.125 204.225 42.5938C203.772 41.0625 203.412 39.4453 203.147 37.7422V37.1094C203.412 35.2813 203.772 33.586 204.225 32.0235C204.678 30.4453 205.272 29.0703 206.006 27.8985C206.74 26.7266 207.647 25.8125 208.725 25.1563C209.818 24.5 211.123 24.1719 212.639 24.1719C214.248 24.1719 215.662 24.4766 216.881 25.086C218.115 25.6953 219.147 26.5703 219.975 27.711C220.818 28.836 221.451 30.1875 221.873 31.7657C222.295 33.3438 222.506 35.0938 222.506 37.0157ZM214.607 37.5078V37.0157C214.607 36.0313 214.537 35.1328 214.397 34.3203C214.256 33.4922 214.029 32.7735 213.717 32.1641C213.42 31.5547 213.022 31.086 212.522 30.7578C212.022 30.4297 211.404 30.2657 210.67 30.2657C209.826 30.2657 209.115 30.3985 208.537 30.6641C207.975 30.9141 207.522 31.3047 207.178 31.836C206.85 32.3516 206.615 33 206.475 33.7813C206.35 34.5469 206.295 35.4453 206.311 36.4766V38.3985C206.279 39.586 206.397 40.6328 206.662 41.5391C206.928 42.4297 207.389 43.125 208.045 43.625C208.701 44.125 209.592 44.375 210.717 44.375C211.467 44.375 212.092 44.2032 212.592 43.8594C213.092 43.5 213.49 43.0078 213.787 42.3828C214.084 41.7422 214.295 41.0078 214.42 40.1797C214.545 39.3516 214.607 38.461 214.607 37.5078ZM234.47 29.5157V59.75H226.572V24.6407H233.931L234.47 29.5157ZM250.033 37.0157V37.5078C250.033 39.3516 249.822 41.0625 249.4 42.6407C248.978 44.2188 248.353 45.5938 247.525 46.7657C246.697 47.9375 245.666 48.8516 244.431 49.5078C243.212 50.1485 241.798 50.4688 240.189 50.4688C238.673 50.4688 237.369 50.1328 236.275 49.461C235.181 48.7891 234.267 47.8594 233.533 46.6719C232.798 45.4844 232.205 44.125 231.752 42.5938C231.298 41.0625 230.939 39.4453 230.673 37.7422V37.1094C230.939 35.2813 231.298 33.586 231.752 32.0235C232.205 30.4453 232.798 29.0703 233.533 27.8985C234.267 26.7266 235.173 25.8125 236.252 25.1563C237.345 24.5 238.65 24.1719 240.166 24.1719C241.775 24.1719 243.189 24.4766 244.408 25.086C245.642 25.6953 246.673 26.5703 247.502 27.711C248.345 28.836 248.978 30.1875 249.4 31.7657C249.822 33.3438 250.033 35.0938 250.033 37.0157ZM242.134 37.5078V37.0157C242.134 36.0313 242.064 35.1328 241.923 34.3203C241.783 33.4922 241.556 32.7735 241.244 32.1641C240.947 31.5547 240.548 31.086 240.048 30.7578C239.548 30.4297 238.931 30.2657 238.197 30.2657C237.353 30.2657 236.642 30.3985 236.064 30.6641C235.502 30.9141 235.048 31.3047 234.705 31.836C234.377 32.3516 234.142 33 234.002 33.7813C233.877 34.5469 233.822 35.4453 233.837 36.4766V38.3985C233.806 39.586 233.923 40.6328 234.189 41.5391C234.455 42.4297 234.916 43.125 235.572 43.625C236.228 44.125 237.119 44.375 238.244 44.375C238.994 44.375 239.619 44.2032 240.119 43.8594C240.619 43.5 241.017 43.0078 241.314 42.3828C241.611 41.7422 241.822 41.0078 241.947 40.1797C242.072 39.3516 242.134 38.461 242.134 37.5078Z" fill="#3988C2"/>
<g filter="url(#filter0_i_181_260)">
<path d="M14.0538 13.3444C14.9861 12.8845 17.4363 11.9213 21.4355 12.2884C28.0994 13.2537 33.2083 14.025 34.9696 14.3097L30.6858 16.8919C31.69 17.8978 32.5524 19.0358 33.2495 20.2744L34.0436 19.3628L56.4361 38.9462C57.1785 39.5967 57.6918 40.4688 57.9001 41.4335C58.1085 42.3983 58.0008 43.4045 57.593 44.3033C57.1852 45.2022 56.499 45.9459 55.6358 46.4245C54.7726 46.9032 53.7783 47.0913 52.7999 46.9611C53.2556 47.8545 53.4303 48.8648 53.3012 49.8593C53.172 50.8539 52.7451 51.7861 52.0764 52.5335C51.4078 53.2809 50.5287 53.8086 49.5546 54.0472C48.5805 54.2858 47.557 54.2242 46.6186 53.8705C46.5913 54.7362 46.3382 55.5798 45.8845 56.3176C45.4307 57.0554 44.7921 57.6618 44.0318 58.0768C43.2715 58.4918 42.4159 58.7008 41.5499 58.6833C40.6839 58.6658 39.8375 58.4223 39.0946 57.9769C38.9255 58.8493 38.5294 59.6617 37.9463 60.3324C37.3632 61.003 36.6137 61.5082 35.7733 61.7969C34.9329 62.0857 34.0312 62.148 33.159 61.9774C32.2869 61.8068 31.4751 61.4094 30.8054 60.8252L12.5647 44.9233C11.9779 44.4128 11.5164 43.7741 11.216 43.0567C10.9155 42.3392 10.7842 41.5623 10.8322 40.786C8.4849 39.1785 6.62171 36.9599 5.44409 34.3702C4.26647 31.7804 3.81924 28.918 4.15075 26.0924C4.48225 23.2669 5.57989 20.5857 7.32496 18.3388C9.07003 16.092 11.3982 14.3649 14.0538 13.3444Z" fill="url(#paint0_linear_181_260)"/>
<path d="M14.0538 13.3444C14.9861 12.8845 17.4363 11.9213 21.4355 12.2884C28.0994 13.2537 33.2083 14.025 34.9696 14.3097L30.6858 16.8919C31.69 17.8978 32.5524 19.0358 33.2495 20.2744L34.0436 19.3628L56.4361 38.9462C57.1785 39.5967 57.6918 40.4688 57.9001 41.4335C58.1085 42.3983 58.0008 43.4045 57.593 44.3033C57.1852 45.2022 56.499 45.9459 55.6358 46.4245C54.7726 46.9032 53.7783 47.0913 52.7999 46.9611C53.2556 47.8545 53.4303 48.8648 53.3012 49.8593C53.172 50.8539 52.7451 51.7861 52.0764 52.5335C51.4078 53.2809 50.5287 53.8086 49.5546 54.0472C48.5805 54.2858 47.557 54.2242 46.6186 53.8705C46.5913 54.7362 46.3382 55.5798 45.8845 56.3176C45.4307 57.0554 44.7921 57.6618 44.0318 58.0768C43.2715 58.4918 42.4159 58.7008 41.5499 58.6833C40.6839 58.6658 39.8375 58.4223 39.0946 57.9769C38.9255 58.8493 38.5294 59.6617 37.9463 60.3324C37.3632 61.003 36.6137 61.5082 35.7733 61.7969C34.9329 62.0857 34.0312 62.148 33.159 61.9774C32.2869 61.8068 31.4751 61.4094 30.8054 60.8252L12.5647 44.9233C11.9779 44.4128 11.5164 43.7741 11.216 43.0567C10.9155 42.3392 10.7842 41.5623 10.8322 40.786C8.4849 39.1785 6.62171 36.9599 5.44409 34.3702C4.26647 31.7804 3.81924 28.918 4.15075 26.0924C4.48225 23.2669 5.57989 20.5857 7.32496 18.3388C9.07003 16.092 11.3982 14.3649 14.0538 13.3444Z" fill="url(#paint1_radial_181_260)"/>
</g>
<path d="M14.0538 13.3444C14.9861 12.8845 17.4363 11.9213 21.4355 12.2884C28.0994 13.2537 33.2083 14.025 34.9696 14.3097L30.6858 16.8919C31.69 17.8978 32.5524 19.0358 33.2495 20.2744L34.0436 19.3628L56.4361 38.9462C57.1785 39.5967 57.6918 40.4688 57.9001 41.4335C58.1085 42.3983 58.0008 43.4045 57.593 44.3033C57.1852 45.2022 56.499 45.9459 55.6358 46.4245C54.7726 46.9032 53.7783 47.0913 52.7999 46.9611C53.2556 47.8545 53.4303 48.8648 53.3012 49.8593C53.172 50.8539 52.7451 51.7861 52.0764 52.5335C51.4078 53.2809 50.5287 53.8086 49.5546 54.0472C48.5805 54.2858 47.557 54.2242 46.6186 53.8705C46.5913 54.7362 46.3382 55.5798 45.8845 56.3176C45.4307 57.0554 44.7921 57.6618 44.0318 58.0768C43.2715 58.4918 42.4159 58.7008 41.5499 58.6833C40.6839 58.6658 39.8375 58.4223 39.0946 57.9769C38.9255 58.8493 38.5294 59.6617 37.9463 60.3324C37.3632 61.003 36.6137 61.5082 35.7733 61.7969C34.9329 62.0857 34.0312 62.148 33.159 61.9774C32.2869 61.8068 31.4751 61.4094 30.8054 60.8252L12.5647 44.9233C11.9779 44.4128 11.5164 43.7741 11.216 43.0567C10.9155 42.3392 10.7842 41.5623 10.8322 40.786C8.4849 39.1785 6.62171 36.9599 5.44409 34.3702C4.26647 31.7804 3.81924 28.918 4.15075 26.0924C4.48225 23.2669 5.57989 20.5857 7.32496 18.3388C9.07003 16.092 11.3982 14.3649 14.0538 13.3444Z" fill="url(#paint2_radial_181_260)"/>
<path d="M14.0538 13.3444C14.9861 12.8845 17.4363 11.9213 21.4355 12.2884C28.0994 13.2537 33.2083 14.025 34.9696 14.3097L30.6858 16.8919C31.69 17.8978 32.5524 19.0358 33.2495 20.2744L34.0436 19.3628L56.4361 38.9462C57.1785 39.5967 57.6918 40.4688 57.9001 41.4335C58.1085 42.3983 58.0008 43.4045 57.593 44.3033C57.1852 45.2022 56.499 45.9459 55.6358 46.4245C54.7726 46.9032 53.7783 47.0913 52.7999 46.9611C53.2556 47.8545 53.4303 48.8648 53.3012 49.8593C53.172 50.8539 52.7451 51.7861 52.0764 52.5335C51.4078 53.2809 50.5287 53.8086 49.5546 54.0472C48.5805 54.2858 47.557 54.2242 46.6186 53.8705C46.5913 54.7362 46.3382 55.5798 45.8845 56.3176C45.4307 57.0554 44.7921 57.6618 44.0318 58.0768C43.2715 58.4918 42.4159 58.7008 41.5499 58.6833C40.6839 58.6658 39.8375 58.4223 39.0946 57.9769C38.9255 58.8493 38.5294 59.6617 37.9463 60.3324C37.3632 61.003 36.6137 61.5082 35.7733 61.7969C34.9329 62.0857 34.0312 62.148 33.159 61.9774C32.2869 61.8068 31.4751 61.4094 30.8054 60.8252L12.5647 44.9233C11.9779 44.4128 11.5164 43.7741 11.216 43.0567C10.9155 42.3392 10.7842 41.5623 10.8322 40.786C8.4849 39.1785 6.62171 36.9599 5.44409 34.3702C4.26647 31.7804 3.81924 28.918 4.15075 26.0924C4.48225 23.2669 5.57989 20.5857 7.32496 18.3388C9.07003 16.092 11.3982 14.3649 14.0538 13.3444Z" fill="url(#paint3_radial_181_260)"/>
<path d="M14.0538 13.3444C14.9861 12.8845 17.4363 11.9213 21.4355 12.2884C28.0994 13.2537 33.2083 14.025 34.9696 14.3097L30.6858 16.8919C31.69 17.8978 32.5524 19.0358 33.2495 20.2744L34.0436 19.3628L56.4361 38.9462C57.1785 39.5967 57.6918 40.4688 57.9001 41.4335C58.1085 42.3983 58.0008 43.4045 57.593 44.3033C57.1852 45.2022 56.499 45.9459 55.6358 46.4245C54.7726 46.9032 53.7783 47.0913 52.7999 46.9611C53.2556 47.8545 53.4303 48.8648 53.3012 49.8593C53.172 50.8539 52.7451 51.7861 52.0764 52.5335C51.4078 53.2809 50.5287 53.8086 49.5546 54.0472C48.5805 54.2858 47.557 54.2242 46.6186 53.8705C46.5913 54.7362 46.3382 55.5798 45.8845 56.3176C45.4307 57.0554 44.7921 57.6618 44.0318 58.0768C43.2715 58.4918 42.4159 58.7008 41.5499 58.6833C40.6839 58.6658 39.8375 58.4223 39.0946 57.9769C38.9255 58.8493 38.5294 59.6617 37.9463 60.3324C37.3632 61.003 36.6137 61.5082 35.7733 61.7969C34.9329 62.0857 34.0312 62.148 33.159 61.9774C32.2869 61.8068 31.4751 61.4094 30.8054 60.8252L12.5647 44.9233C11.9779 44.4128 11.5164 43.7741 11.216 43.0567C10.9155 42.3392 10.7842 41.5623 10.8322 40.786C8.4849 39.1785 6.62171 36.9599 5.44409 34.3702C4.26647 31.7804 3.81924 28.918 4.15075 26.0924C4.48225 23.2669 5.57989 20.5857 7.32496 18.3388C9.07003 16.092 11.3982 14.3649 14.0538 13.3444Z" fill="url(#paint4_radial_181_260)"/>
<path d="M14.0538 13.3444C14.9861 12.8845 17.4363 11.9213 21.4355 12.2884C28.0994 13.2537 33.2083 14.025 34.9696 14.3097L30.6858 16.8919C31.69 17.8978 32.5524 19.0358 33.2495 20.2744L34.0436 19.3628L56.4361 38.9462C57.1785 39.5967 57.6918 40.4688 57.9001 41.4335C58.1085 42.3983 58.0008 43.4045 57.593 44.3033C57.1852 45.2022 56.499 45.9459 55.6358 46.4245C54.7726 46.9032 53.7783 47.0913 52.7999 46.9611C53.2556 47.8545 53.4303 48.8648 53.3012 49.8593C53.172 50.8539 52.7451 51.7861 52.0764 52.5335C51.4078 53.2809 50.5287 53.8086 49.5546 54.0472C48.5805 54.2858 47.557 54.2242 46.6186 53.8705C46.5913 54.7362 46.3382 55.5798 45.8845 56.3176C45.4307 57.0554 44.7921 57.6618 44.0318 58.0768C43.2715 58.4918 42.4159 58.7008 41.5499 58.6833C40.6839 58.6658 39.8375 58.4223 39.0946 57.9769C38.9255 58.8493 38.5294 59.6617 37.9463 60.3324C37.3632 61.003 36.6137 61.5082 35.7733 61.7969C34.9329 62.0857 34.0312 62.148 33.159 61.9774C32.2869 61.8068 31.4751 61.4094 30.8054 60.8252L12.5647 44.9233C11.9779 44.4128 11.5164 43.7741 11.216 43.0567C10.9155 42.3392 10.7842 41.5623 10.8322 40.786C8.4849 39.1785 6.62171 36.9599 5.44409 34.3702C4.26647 31.7804 3.81924 28.918 4.15075 26.0924C4.48225 23.2669 5.57989 20.5857 7.32496 18.3388C9.07003 16.092 11.3982 14.3649 14.0538 13.3444Z" fill="url(#paint5_radial_181_260)"/>
<path d="M14.0538 13.3444C14.9861 12.8845 17.4363 11.9213 21.4355 12.2884C28.0994 13.2537 33.2083 14.025 34.9696 14.3097L30.6858 16.8919C31.69 17.8978 32.5524 19.0358 33.2495 20.2744L34.0436 19.3628L56.4361 38.9462C57.1785 39.5967 57.6918 40.4688 57.9001 41.4335C58.1085 42.3983 58.0008 43.4045 57.593 44.3033C57.1852 45.2022 56.499 45.9459 55.6358 46.4245C54.7726 46.9032 53.7783 47.0913 52.7999 46.9611C53.2556 47.8545 53.4303 48.8648 53.3012 49.8593C53.172 50.8539 52.7451 51.7861 52.0764 52.5335C51.4078 53.2809 50.5287 53.8086 49.5546 54.0472C48.5805 54.2858 47.557 54.2242 46.6186 53.8705C46.5913 54.7362 46.3382 55.5798 45.8845 56.3176C45.4307 57.0554 44.7921 57.6618 44.0318 58.0768C43.2715 58.4918 42.4159 58.7008 41.5499 58.6833C40.6839 58.6658 39.8375 58.4223 39.0946 57.9769C38.9255 58.8493 38.5294 59.6617 37.9463 60.3324C37.3632 61.003 36.6137 61.5082 35.7733 61.7969C34.9329 62.0857 34.0312 62.148 33.159 61.9774C32.2869 61.8068 31.4751 61.4094 30.8054 60.8252L12.5647 44.9233C11.9779 44.4128 11.5164 43.7741 11.216 43.0567C10.9155 42.3392 10.7842 41.5623 10.8322 40.786C8.4849 39.1785 6.62171 36.9599 5.44409 34.3702C4.26647 31.7804 3.81924 28.918 4.15075 26.0924C4.48225 23.2669 5.57989 20.5857 7.32496 18.3388C9.07003 16.092 11.3982 14.3649 14.0538 13.3444Z" fill="url(#paint6_radial_181_260)"/>
<g filter="url(#filter1_f_181_260)">
<path fill-rule="evenodd" clip-rule="evenodd" d="M9.65673 37.6448C8.94502 38.3675 8.52727 39.3289 8.48458 40.3424C8.4419 41.3558 8.77732 42.3489 9.42573 43.129C9.9085 43.7165 10.5388 44.1652 11.252 44.4291C11.9652 44.6929 12.7358 44.7624 13.4847 44.6305C13.1211 45.3792 13.0002 46.2228 13.1388 47.0436C13.2775 47.8644 13.6688 48.6214 14.2582 49.2092C15.3967 50.3436 17.0982 50.754 18.5399 50.292C18.2924 51.5213 18.8761 52.9176 19.8744 53.9179C20.8602 54.9017 22.4071 55.1513 23.6364 54.7594C23.4817 55.8773 23.8158 57.09 24.5562 57.979C25.9381 59.6413 28.6255 60.0559 30.3312 58.6307L33.1012 55.77C34.5119 54.3861 34.4005 51.7234 33.1012 50.2343C32.2205 49.2216 30.9685 48.774 29.7805 48.9452C30.5829 47.5448 30.2652 45.67 29.2649 44.5253C28.2543 43.3703 26.8765 42.9227 25.6555 43.1847C25.9753 42.4181 26.0605 41.5739 25.9004 40.7589C25.7404 39.9439 25.3422 39.1946 24.7563 38.6059C23.4631 37.3375 21.481 37.1498 19.9507 37.9872C20.1226 37.1161 20.0092 36.2127 19.6273 35.4112C19.2453 34.6097 18.6151 33.9526 17.8303 33.5374C17.0454 33.1223 16.1476 32.9712 15.2701 33.1066C14.3925 33.242 13.582 33.6567 12.9588 34.2891L9.65673 37.6448Z" fill="#FFB21A"/>
</g>
<g filter="url(#filter2_f_181_260)">
<path d="M31.0261 53.3177L36.0009 57.7645" stroke="url(#paint7_linear_181_260)" stroke-width="1.5" stroke-linecap="round"/>
</g>
<g filter="url(#filter3_f_181_260)">
<path d="M27.2414 16.7413C26.0176 17.0838 24.8105 17.483 23.6238 17.9376L23.6279 17.9479C22.9904 18.2442 22.4503 18.7157 22.0706 19.3073C21.6908 19.8988 21.487 20.5862 21.4829 21.2891C21.4829 23.3434 23.1886 25.0058 25.2903 25.0058C25.8018 25.0058 26.2906 24.9068 26.7361 24.7273C27.097 24.616 27.4786 24.4943 27.8767 24.3685H27.8828L28.9471 24.0261C36.1617 21.7037 32.5771 20.887 27.2414 16.7413Z" fill="#D77A15"/>
</g>
<g filter="url(#filter4_f_181_260)">
<path d="M37.3726 25.6163L55.0317 41.3428" stroke="url(#paint8_linear_181_260)" stroke-width="1.5" stroke-linecap="round"/>
</g>
<g filter="url(#filter5_f_181_260)">
<path d="M45.6843 44.4737L50.6611 48.9204" stroke="url(#paint9_linear_181_260)" stroke-width="1.5" stroke-linecap="round"/>
</g>
<g filter="url(#filter6_f_181_260)">
<path d="M38.9751 49.7723L43.9499 54.2211" stroke="url(#paint10_linear_181_260)" stroke-width="1.5" stroke-linecap="round"/>
</g>
<path d="M7.027 43.8467C6.30784 42.9821 5.93575 41.8809 5.98301 40.7573C6.03028 39.6336 6.49352 38.5677 7.28275 37.7665L10.9437 34.0478C11.3683 33.6189 11.8735 33.2782 12.4303 33.0452C12.987 32.8123 13.5844 32.6917 14.1879 32.6904C14.7914 32.6891 15.3893 32.8072 15.947 33.0378C16.5047 33.2684 17.0114 33.607 17.4378 34.0341C17.8642 34.4612 18.202 34.9684 18.4317 35.5265C18.6614 36.0846 18.7785 36.6826 18.7763 37.2861C18.7741 37.8896 18.6525 38.4868 18.4187 39.0432C18.1849 39.5995 17.8433 40.1042 17.4138 40.5282L13.6992 44.3768C11.8058 46.233 8.72238 45.8845 7.027 43.8467Z" fill="url(#paint11_linear_181_260)"/>
<path d="M7.027 43.8467C6.30784 42.9821 5.93575 41.8809 5.98301 40.7573C6.03028 39.6336 6.49352 38.5677 7.28275 37.7665L10.9437 34.0478C11.3683 33.6189 11.8735 33.2782 12.4303 33.0452C12.987 32.8123 13.5844 32.6917 14.1879 32.6904C14.7914 32.6891 15.3893 32.8072 15.947 33.0378C16.5047 33.2684 17.0114 33.607 17.4378 34.0341C17.8642 34.4612 18.202 34.9684 18.4317 35.5265C18.6614 36.0846 18.7785 36.6826 18.7763 37.2861C18.7741 37.8896 18.6525 38.4868 18.4187 39.0432C18.1849 39.5995 17.8433 40.1042 17.4138 40.5282L13.6992 44.3768C11.8058 46.233 8.72238 45.8845 7.027 43.8467Z" fill="url(#paint12_linear_181_260)"/>
<path d="M7.027 43.8467C6.30784 42.9821 5.93575 41.8809 5.98301 40.7573C6.03028 39.6336 6.49352 38.5677 7.28275 37.7665L10.9437 34.0478C11.3683 33.6189 11.8735 33.2782 12.4303 33.0452C12.987 32.8123 13.5844 32.6917 14.1879 32.6904C14.7914 32.6891 15.3893 32.8072 15.947 33.0378C16.5047 33.2684 17.0114 33.607 17.4378 34.0341C17.8642 34.4612 18.202 34.9684 18.4317 35.5265C18.6614 36.0846 18.7785 36.6826 18.7763 37.2861C18.7741 37.8896 18.6525 38.4868 18.4187 39.0432C18.1849 39.5995 17.8433 40.1042 17.4138 40.5282L13.6992 44.3768C11.8058 46.233 8.72238 45.8845 7.027 43.8467Z" fill="url(#paint13_radial_181_260)"/>
<path d="M7.027 43.8467C6.30784 42.9821 5.93575 41.8809 5.98301 40.7573C6.03028 39.6336 6.49352 38.5677 7.28275 37.7665L10.9437 34.0478C11.3683 33.6189 11.8735 33.2782 12.4303 33.0452C12.987 32.8123 13.5844 32.6917 14.1879 32.6904C14.7914 32.6891 15.3893 32.8072 15.947 33.0378C16.5047 33.2684 17.0114 33.607 17.4378 34.0341C17.8642 34.4612 18.202 34.9684 18.4317 35.5265C18.6614 36.0846 18.7785 36.6826 18.7763 37.2861C18.7741 37.8896 18.6525 38.4868 18.4187 39.0432C18.1849 39.5995 17.8433 40.1042 17.4138 40.5282L13.6992 44.3768C11.8058 46.233 8.72238 45.8845 7.027 43.8467Z" fill="url(#paint14_radial_181_260)"/>
<path d="M12.3853 50.5931C11.5573 49.7676 11.0888 48.6484 11.0819 47.4792C11.0749 46.3099 11.53 45.1853 12.3482 44.35L17.6447 38.9462C19.369 37.1869 22.2668 37.1085 24.0261 38.8328C25.7895 40.5653 25.8452 43.5332 24.1024 45.2884L18.7688 50.7891C17.0404 52.5278 14.1199 52.3195 12.3833 50.589L12.3853 50.5931Z" fill="url(#paint15_linear_181_260)"/>
<path d="M12.3853 50.5931C11.5573 49.7676 11.0888 48.6484 11.0819 47.4792C11.0749 46.3099 11.53 45.1853 12.3482 44.35L17.6447 38.9462C19.369 37.1869 22.2668 37.1085 24.0261 38.8328C25.7895 40.5653 25.8452 43.5332 24.1024 45.2884L18.7688 50.7891C17.0404 52.5278 14.1199 52.3195 12.3833 50.589L12.3853 50.5931Z" fill="url(#paint16_linear_181_260)"/>
<path d="M12.3853 50.5931C11.5573 49.7676 11.0888 48.6484 11.0819 47.4792C11.0749 46.3099 11.53 45.1853 12.3482 44.35L17.6447 38.9462C19.369 37.1869 22.2668 37.1085 24.0261 38.8328C25.7895 40.5653 25.8452 43.5332 24.1024 45.2884L18.7688 50.7891C17.0404 52.5278 14.1199 52.3195 12.3833 50.589L12.3853 50.5931Z" fill="url(#paint17_radial_181_260)"/>
<path d="M12.3853 50.5931C11.5573 49.7676 11.0888 48.6484 11.0819 47.4792C11.0749 46.3099 11.53 45.1853 12.3482 44.35L17.6447 38.9462C19.369 37.1869 22.2668 37.1085 24.0261 38.8328C25.7895 40.5653 25.8452 43.5332 24.1024 45.2884L18.7688 50.7891C17.0404 52.5278 14.1199 52.3195 12.3833 50.589L12.3853 50.5931Z" fill="url(#paint18_radial_181_260)"/>
<path d="M23.8013 60.3137C22.4545 58.6947 22.3246 56.1103 23.8013 54.6088L27.3447 51.4532C29.036 49.7352 31.6966 49.9063 33.2785 51.7255C34.7182 53.3755 34.8419 56.329 33.2785 57.8635L30.2095 61.0397C28.3162 62.6175 25.3358 62.1576 23.8013 60.3137Z" fill="url(#paint19_linear_181_260)"/>
<path d="M23.8013 60.3137C22.4545 58.6947 22.3246 56.1103 23.8013 54.6088L27.3447 51.4532C29.036 49.7352 31.6966 49.9063 33.2785 51.7255C34.7182 53.3755 34.8419 56.329 33.2785 57.8635L30.2095 61.0397C28.3162 62.6175 25.3358 62.1576 23.8013 60.3137Z" fill="url(#paint20_linear_181_260)"/>
<path d="M23.8013 60.3137C22.4545 58.6947 22.3246 56.1103 23.8013 54.6088L27.3447 51.4532C29.036 49.7352 31.6966 49.9063 33.2785 51.7255C34.7182 53.3755 34.8419 56.329 33.2785 57.8635L30.2095 61.0397C28.3162 62.6175 25.3358 62.1576 23.8013 60.3137Z" fill="url(#paint21_radial_181_260)"/>
<path d="M23.8013 60.3137C22.4545 58.6947 22.3246 56.1103 23.8013 54.6088L27.3447 51.4532C29.036 49.7352 31.6966 49.9063 33.2785 51.7255C34.7182 53.3755 34.8419 56.329 33.2785 57.8635L30.2095 61.0397C28.3162 62.6175 25.3358 62.1576 23.8013 60.3137Z" fill="url(#paint22_radial_181_260)"/>
<path d="M18.612 55.8113C17.0507 54.25 16.4051 51.8142 17.9644 50.2549L23.2382 44.8842C24.7995 43.3249 27.3591 43.4899 29.0256 45.3957C30.3249 46.8827 30.5848 49.4856 29.0256 51.0469L24.2612 55.8113C22.9989 57.2633 20.1713 57.3705 18.6099 55.8113H18.612Z" fill="url(#paint23_linear_181_260)"/>
<path d="M18.612 55.8113C17.0507 54.25 16.4051 51.8142 17.9644 50.2549L23.2382 44.8842C24.7995 43.3249 27.3591 43.4899 29.0256 45.3957C30.3249 46.8827 30.5848 49.4856 29.0256 51.0469L24.2612 55.8113C22.9989 57.2633 20.1713 57.3705 18.6099 55.8113H18.612Z" fill="url(#paint24_linear_181_260)"/>
<path d="M18.612 55.8113C17.0507 54.25 16.4051 51.8142 17.9644 50.2549L23.2382 44.8842C24.7995 43.3249 27.3591 43.4899 29.0256 45.3957C30.3249 46.8827 30.5848 49.4856 29.0256 51.0469L24.2612 55.8113C22.9989 57.2633 20.1713 57.3705 18.6099 55.8113H18.612Z" fill="url(#paint25_radial_181_260)"/>
<path d="M18.612 55.8113C17.0507 54.25 16.4051 51.8142 17.9644 50.2549L23.2382 44.8842C24.7995 43.3249 27.3591 43.4899 29.0256 45.3957C30.3249 46.8827 30.5848 49.4856 29.0256 51.0469L24.2612 55.8113C22.9989 57.2633 20.1713 57.3705 18.6099 55.8113H18.612Z" fill="url(#paint26_radial_181_260)"/>
<g filter="url(#filter7_i_181_260)">
<path d="M25.0119 16.5743L25.0181 16.5867C23.9982 17.0708 23.2082 17.9349 22.8173 18.9941C22.4264 20.0533 22.4656 21.2234 22.9265 22.2541C23.3874 23.2847 24.2333 24.0941 25.2834 24.5089C26.3334 24.9237 27.5041 24.9111 28.545 24.4737L29.8402 24.055L29.8464 24.0529C31.8141 23.4156 34.7119 22.4112 36.2917 22.0977C36.7826 21.9987 37.2652 22.1802 37.6427 22.5102L56.397 38.9297C59.7919 35.9474 62.0586 31.8863 62.0586 27.1776C62.0586 18.9606 55.5534 12.3008 47.0662 12.3008C41.2459 12.5895 32.0038 13.8043 25.0119 16.5743Z" fill="#FBB439"/>
<path d="M25.0119 16.5743L25.0181 16.5867C23.9982 17.0708 23.2082 17.9349 22.8173 18.9941C22.4264 20.0533 22.4656 21.2234 22.9265 22.2541C23.3874 23.2847 24.2333 24.0941 25.2834 24.5089C26.3334 24.9237 27.5041 24.9111 28.545 24.4737L29.8402 24.055L29.8464 24.0529C31.8141 23.4156 34.7119 22.4112 36.2917 22.0977C36.7826 21.9987 37.2652 22.1802 37.6427 22.5102L56.397 38.9297C59.7919 35.9474 62.0586 31.8863 62.0586 27.1776C62.0586 18.9606 55.5534 12.3008 47.0662 12.3008C41.2459 12.5895 32.0038 13.8043 25.0119 16.5743Z" fill="url(#paint27_radial_181_260)"/>
<path d="M25.0119 16.5743L25.0181 16.5867C23.9982 17.0708 23.2082 17.9349 22.8173 18.9941C22.4264 20.0533 22.4656 21.2234 22.9265 22.2541C23.3874 23.2847 24.2333 24.0941 25.2834 24.5089C26.3334 24.9237 27.5041 24.9111 28.545 24.4737L29.8402 24.055L29.8464 24.0529C31.8141 23.4156 34.7119 22.4112 36.2917 22.0977C36.7826 21.9987 37.2652 22.1802 37.6427 22.5102L56.397 38.9297C59.7919 35.9474 62.0586 31.8863 62.0586 27.1776C62.0586 18.9606 55.5534 12.3008 47.0662 12.3008C41.2459 12.5895 32.0038 13.8043 25.0119 16.5743Z" fill="url(#paint28_radial_181_260)"/>
<path d="M25.0119 16.5743L25.0181 16.5867C23.9982 17.0708 23.2082 17.9349 22.8173 18.9941C22.4264 20.0533 22.4656 21.2234 22.9265 22.2541C23.3874 23.2847 24.2333 24.0941 25.2834 24.5089C26.3334 24.9237 27.5041 24.9111 28.545 24.4737L29.8402 24.055L29.8464 24.0529C31.8141 23.4156 34.7119 22.4112 36.2917 22.0977C36.7826 21.9987 37.2652 22.1802 37.6427 22.5102L56.397 38.9297C59.7919 35.9474 62.0586 31.8863 62.0586 27.1776C62.0586 18.9606 55.5534 12.3008 47.0662 12.3008C41.2459 12.5895 32.0038 13.8043 25.0119 16.5743Z" fill="url(#paint29_radial_181_260)"/>
</g>
<path d="M25.0119 16.5743L25.0181 16.5867C23.9982 17.0708 23.2082 17.9349 22.8173 18.9941C22.4264 20.0533 22.4656 21.2234 22.9265 22.2541C23.3874 23.2847 24.2333 24.0941 25.2834 24.5089C26.3334 24.9237 27.5041 24.9111 28.545 24.4737L29.8402 24.055L29.8464 24.0529C31.8141 23.4156 34.7119 22.4112 36.2917 22.0977C36.7826 21.9987 37.2652 22.1802 37.6427 22.5102L56.397 38.9297C59.7919 35.9474 62.0586 31.8863 62.0586 27.1776C62.0586 18.9606 55.5534 12.3008 47.0662 12.3008C41.2459 12.5895 32.0038 13.8043 25.0119 16.5743Z" fill="url(#paint30_radial_181_260)"/>
<g filter="url(#filter8_f_181_260)">
<path d="M38.6431 19.6103C35.9515 20.2703 32.6742 21.2726 30.2796 22.0605C29.9449 22.1719 29.5913 22.2149 29.2396 22.1869C28.888 22.1589 28.5456 22.0605 28.2327 21.8975C27.9199 21.7345 27.643 21.5103 27.4185 21.2382C27.194 20.9661 27.0266 20.6517 26.926 20.3136C26.5671 19.0699 27.1983 17.752 28.4213 17.323C31.4944 16.2505 35.2399 15.279 37.9212 14.7325C39.2061 14.4705 40.4065 15.3471 40.6375 16.6382C40.8788 17.9891 39.9754 19.2844 38.6431 19.6082V19.6103Z" fill="#FFE746"/>
</g>
<defs>
<filter id="filter0_i_181_260" x="4.04443" y="10.7068" width="55.4592" height="51.3647" filterUnits="userSpaceOnUse" color-interpolation-filters="sRGB">
<feFlood flood-opacity="0" result="BackgroundImageFix"/>
<feBlend mode="normal" in="SourceGraphic" in2="BackgroundImageFix" result="shape"/>
<feColorMatrix in="SourceAlpha" type="matrix" values="0 0 0 0 0 0 0 0 0 0 0 0 0 0 0 0 0 0 127 0" result="hardAlpha"/>
<feOffset dx="1.5" dy="-1.5"/>
<feGaussianBlur stdDeviation="1.5"/>
<feComposite in2="hardAlpha" operator="arithmetic" k2="-1" k3="1"/>
<feColorMatrix type="matrix" values="0 0 0 0 0.945098 0 0 0 0 0.615686 0 0 0 0 0.156863 0 0 0 1 0"/>
<feBlend mode="normal" in2="shape" result="effect1_innerShadow_181_260"/>
</filter>
<filter id="filter1_f_181_260" x="7.73096" y="32.3083" width="27.137" height="27.9385" filterUnits="userSpaceOnUse" color-interpolation-filters="sRGB">
<feFlood flood-opacity="0" result="BackgroundImageFix"/>
<feBlend mode="normal" in="SourceGraphic" in2="BackgroundImageFix" result="shape"/>
<feGaussianBlur stdDeviation="0.375" result="effect1_foregroundBlur_181_260"/>
</filter>
<filter id="filter2_f_181_260" x="28.7761" y="51.0677" width="9.47485" height="8.94675" filterUnits="userSpaceOnUse" color-interpolation-filters="sRGB">
<feFlood flood-opacity="0" result="BackgroundImageFix"/>
<feBlend mode="normal" in="SourceGraphic" in2="BackgroundImageFix" result="shape"/>
<feGaussianBlur stdDeviation="0.75" result="effect1_foregroundBlur_181_260"/>
</filter>
<filter id="filter3_f_181_260" x="20.6229" y="15.8813" width="13.2373" height="9.98443" filterUnits="userSpaceOnUse" color-interpolation-filters="sRGB">
<feFlood flood-opacity="0" result="BackgroundImageFix"/>
<feBlend mode="normal" in="SourceGraphic" in2="BackgroundImageFix" result="shape"/>
<feGaussianBlur stdDeviation="0.43" result="effect1_foregroundBlur_181_260"/>
</filter>
<filter id="filter4_f_181_260" x="35.1226" y="23.3663" width="22.1592" height="20.2266" filterUnits="userSpaceOnUse" color-interpolation-filters="sRGB">
<feFlood flood-opacity="0" result="BackgroundImageFix"/>
<feBlend mode="normal" in="SourceGraphic" in2="BackgroundImageFix" result="shape"/>
<feGaussianBlur stdDeviation="0.75" result="effect1_foregroundBlur_181_260"/>
</filter>
<filter id="filter5_f_181_260" x="43.4343" y="42.2237" width="9.47681" height="8.94675" filterUnits="userSpaceOnUse" color-interpolation-filters="sRGB">
<feFlood flood-opacity="0" result="BackgroundImageFix"/>
<feBlend mode="normal" in="SourceGraphic" in2="BackgroundImageFix" result="shape"/>
<feGaussianBlur stdDeviation="0.75" result="effect1_foregroundBlur_181_260"/>
</filter>
<filter id="filter6_f_181_260" x="36.7251" y="47.5223" width="9.47485" height="8.94882" filterUnits="userSpaceOnUse" color-interpolation-filters="sRGB">
<feFlood flood-opacity="0" result="BackgroundImageFix"/>
<feBlend mode="normal" in="SourceGraphic" in2="BackgroundImageFix" result="shape"/>
<feGaussianBlur stdDeviation="0.75" result="effect1_foregroundBlur_181_260"/>
</filter>
<filter id="filter7_i_181_260" x="22.55" y="12.3008" width="39.5085" height="26.7789" filterUnits="userSpaceOnUse" color-interpolation-filters="sRGB">
<feFlood flood-opacity="0" result="BackgroundImageFix"/>
<feBlend mode="normal" in="SourceGraphic" in2="BackgroundImageFix" result="shape"/>
<feColorMatrix in="SourceAlpha" type="matrix" values="0 0 0 0 0 0 0 0 0 0 0 0 0 0 0 0 0 0 127 0" result="hardAlpha"/>
<feOffset dy="0.15"/>
<feGaussianBlur stdDeviation="0.5"/>
<feComposite in2="hardAlpha" operator="arithmetic" k2="-1" k3="1"/>
<feColorMatrix type="matrix" values="0 0 0 0 0.917647 0 0 0 0 0.615686 0 0 0 0 0.137255 0 0 0 1 0"/>
<feBlend mode="normal" in2="shape" result="effect1_innerShadow_181_260"/>
</filter>
<filter id="filter8_f_181_260" x="24.8259" y="12.6861" width="17.8506" height="11.5091" filterUnits="userSpaceOnUse" color-interpolation-filters="sRGB">
<feFlood flood-opacity="0" result="BackgroundImageFix"/>
<feBlend mode="normal" in="SourceGraphic" in2="BackgroundImageFix" result="shape"/>
<feGaussianBlur stdDeviation="1" result="effect1_foregroundBlur_181_260"/>
</filter>
<linearGradient id="paint0_linear_181_260" x1="46.5877" y1="28.941" x2="32.7958" y2="49.1783" gradientUnits="userSpaceOnUse">
<stop stop-color="#FFD741"/>
<stop offset="1" stop-color="#FFBE37"/>
</linearGradient>
<radialGradient id="paint1_radial_181_260" cx="0" cy="0" r="1" gradientUnits="userSpaceOnUse" gradientTransform="translate(41.1736 21.5944) rotate(122.645) scale(9.79771 13.6239)">
<stop stop-color="#FFDC38"/>
<stop offset="1" stop-color="#FFDC38" stop-opacity="0"/>
</radialGradient>
<radialGradient id="paint2_radial_181_260" cx="0" cy="0" r="1" gradientUnits="userSpaceOnUse" gradientTransform="translate(54.4499 49.8238) rotate(-136.375) scale(5.69853 4.54746)">
<stop stop-color="#FFCB41"/>
<stop offset="1" stop-color="#FFCB41" stop-opacity="0"/>
</radialGradient>
<radialGradient id="paint3_radial_181_260" cx="0" cy="0" r="1" gradientUnits="userSpaceOnUse" gradientTransform="translate(55.805 47.3757) rotate(-138.778) scale(9.68299 2.64519)">
<stop stop-color="#F48E5A"/>
<stop offset="1" stop-color="#F48E5A" stop-opacity="0"/>
</radialGradient>
<radialGradient id="paint4_radial_181_260" cx="0" cy="0" r="1" gradientUnits="userSpaceOnUse" gradientTransform="translate(50.4549 55.7535) rotate(-134.193) scale(12.9447 3.53622)">
<stop stop-color="#F48E5A"/>
<stop offset="1" stop-color="#F48E5A" stop-opacity="0"/>
</radialGradient>
<radialGradient id="paint5_radial_181_260" cx="0" cy="0" r="1" gradientUnits="userSpaceOnUse" gradientTransform="translate(41.4314 59.5568) rotate(-133.968) scale(10.1194 3.20868)">
<stop stop-color="#F48E5A"/>
<stop offset="1" stop-color="#F48E5A" stop-opacity="0"/>
</radialGradient>
<radialGradient id="paint6_radial_181_260" cx="0" cy="0" r="1" gradientUnits="userSpaceOnUse" gradientTransform="translate(34.4066 63.6158) rotate(-139.295) scale(11.563 3.38935)">
<stop stop-color="#F48E5A"/>
<stop offset="1" stop-color="#F48E5A" stop-opacity="0"/>
</radialGradient>
<linearGradient id="paint7_linear_181_260" x1="36.0009" y1="57.7645" x2="28.514" y2="50.4178" gradientUnits="userSpaceOnUse">
<stop stop-color="#FFCD43"/>
<stop offset="1" stop-color="#FFCD43" stop-opacity="0"/>
</linearGradient>
<linearGradient id="paint8_linear_181_260" x1="55.0317" y1="41.3428" x2="36.3393" y2="25.1006" gradientUnits="userSpaceOnUse">
<stop stop-color="#FFE647"/>
<stop offset="1" stop-color="#FFE647" stop-opacity="0"/>
</linearGradient>
<linearGradient id="paint9_linear_181_260" x1="50.6611" y1="48.9204" x2="43.1722" y2="41.5738" gradientUnits="userSpaceOnUse">
<stop stop-color="#FFD941"/>
<stop offset="1" stop-color="#FFD941" stop-opacity="0"/>
</linearGradient>
<linearGradient id="paint10_linear_181_260" x1="43.9499" y1="54.2211" x2="36.4609" y2="46.8724" gradientUnits="userSpaceOnUse">
<stop stop-color="#FFD63F"/>
<stop offset="1" stop-color="#FFD63F" stop-opacity="0"/>
</linearGradient>
<linearGradient id="paint11_linear_181_260" x1="15.8442" y1="35.3863" x2="6.8847" y2="44.022" gradientUnits="userSpaceOnUse">
<stop stop-color="#FFBC41"/>
<stop offset="1" stop-color="#E69429"/>
</linearGradient>
<linearGradient id="paint12_linear_181_260" x1="15.0378" y1="43.6693" x2="13.0413" y2="41.5408" gradientUnits="userSpaceOnUse">
<stop stop-color="#E08407"/>
<stop offset="1" stop-color="#E08407" stop-opacity="0"/>
</linearGradient>
<radialGradient id="paint13_radial_181_260" cx="0" cy="0" r="1" gradientUnits="userSpaceOnUse" gradientTransform="translate(10.8818 47.0518) rotate(-88.8767) scale(6.57548 5.9461)">
<stop stop-color="#DA725B"/>
<stop offset="1" stop-color="#DA725B" stop-opacity="0"/>
</radialGradient>
<radialGradient id="paint14_radial_181_260" cx="0" cy="0" r="1" gradientUnits="userSpaceOnUse" gradientTransform="translate(17.5502 33.9031) rotate(136.229) scale(5.31073 5.1361)">
<stop stop-color="#FFE43E"/>
<stop offset="1" stop-color="#FFE43E" stop-opacity="0"/>
</radialGradient>
<linearGradient id="paint15_linear_181_260" x1="22.0956" y1="40.6003" x2="12.0925" y2="50.2446" gradientUnits="userSpaceOnUse">
<stop stop-color="#FFBC41"/>
<stop offset="1" stop-color="#E69429"/>
</linearGradient>
<linearGradient id="paint16_linear_181_260" x1="21.1963" y1="49.8506" x2="18.9647" y2="47.4746" gradientUnits="userSpaceOnUse">
<stop stop-color="#E08407"/>
<stop offset="1" stop-color="#E08407" stop-opacity="0"/>
</linearGradient>
<radialGradient id="paint17_radial_181_260" cx="0" cy="0" r="1" gradientUnits="userSpaceOnUse" gradientTransform="translate(15.5863 53.3033) rotate(-83.0945) scale(8.57717 10.136)">
<stop stop-color="#E8766E"/>
<stop offset="1" stop-color="#E8766E" stop-opacity="0"/>
</radialGradient>
<radialGradient id="paint18_radial_181_260" cx="0" cy="0" r="1" gradientUnits="userSpaceOnUse" gradientTransform="translate(23.3219 39.5762) rotate(136.026) scale(5.00156 4.83714)">
<stop stop-color="#FFE43E"/>
<stop offset="1" stop-color="#FFE43E" stop-opacity="0"/>
</radialGradient>
<linearGradient id="paint19_linear_181_260" x1="31.7275" y1="52.7175" x2="23.5786" y2="60.5818" gradientUnits="userSpaceOnUse">
<stop stop-color="#FFBC41"/>
<stop offset="1" stop-color="#E69429"/>
</linearGradient>
<linearGradient id="paint20_linear_181_260" x1="24.8677" y1="53.8849" x2="27.7655" y2="55.7577" gradientUnits="userSpaceOnUse">
<stop offset="0.156" stop-color="#E08407"/>
<stop offset="1" stop-color="#E08407" stop-opacity="0"/>
</linearGradient>
<radialGradient id="paint21_radial_181_260" cx="0" cy="0" r="1" gradientUnits="userSpaceOnUse" gradientTransform="translate(26.3506 63.6158) rotate(-84.1036) scale(7.52883 8.91053)">
<stop stop-color="#E8766E"/>
<stop offset="1" stop-color="#E8766E" stop-opacity="0"/>
</radialGradient>
<radialGradient id="paint22_radial_181_260" cx="0" cy="0" r="1" gradientUnits="userSpaceOnUse" gradientTransform="translate(32.7258 51.8822) rotate(136.071) scale(4.07692 3.94266)">
<stop stop-color="#FFE43E"/>
<stop offset="1" stop-color="#FFE43E" stop-opacity="0"/>
</radialGradient>
<linearGradient id="paint23_linear_181_260" x1="27.1074" y1="46.5754" x2="18.0056" y2="55.3637" gradientUnits="userSpaceOnUse">
<stop stop-color="#FFBC41"/>
<stop offset="1" stop-color="#E69429"/>
</linearGradient>
<linearGradient id="paint24_linear_181_260" x1="26.8661" y1="55.4957" x2="24.9666" y2="53.4621" gradientUnits="userSpaceOnUse">
<stop stop-color="#E08407"/>
<stop offset="1" stop-color="#E08407" stop-opacity="0"/>
</linearGradient>
<radialGradient id="paint25_radial_181_260" cx="0" cy="0" r="1" gradientUnits="userSpaceOnUse" gradientTransform="translate(21.1763 58.1302) rotate(-83.082) scale(7.80237 9.23705)">
<stop stop-color="#E8766E"/>
<stop offset="1" stop-color="#E8766E" stop-opacity="0"/>
</radialGradient>
<radialGradient id="paint26_radial_181_260" cx="0" cy="0" r="1" gradientUnits="userSpaceOnUse" gradientTransform="translate(28.222 45.6445) rotate(136.08) scale(4.55402 4.40401)">
<stop stop-color="#FFE43E"/>
<stop offset="1" stop-color="#FFE43E" stop-opacity="0"/>
</radialGradient>
<radialGradient id="paint27_radial_181_260" cx="0" cy="0" r="1" gradientUnits="userSpaceOnUse" gradientTransform="translate(39.5546 35.2564) rotate(-33.6901) scale(25.015 39.3156)">
<stop offset="0.361" stop-color="#FFE949" stop-opacity="0"/>
<stop offset="1" stop-color="#FFE949"/>
</radialGradient>
<radialGradient id="paint28_radial_181_260" cx="0" cy="0" r="1" gradientUnits="userSpaceOnUse" gradientTransform="translate(22.5844 22.141) rotate(-21.4028) scale(8.91192 14.3106)">
<stop stop-color="#EE9226"/>
<stop offset="1" stop-color="#EE9226" stop-opacity="0"/>
</radialGradient>
<radialGradient id="paint29_radial_181_260" cx="0" cy="0" r="1" gradientUnits="userSpaceOnUse" gradientTransform="translate(38.5769 35.6913) rotate(-38.55) scale(17.7427 16.932)">
<stop stop-color="#F7A91E"/>
<stop offset="1" stop-color="#F7A91E" stop-opacity="0"/>
</radialGradient>
<radialGradient id="paint30_radial_181_260" cx="0" cy="0" r="1" gradientUnits="userSpaceOnUse" gradientTransform="translate(41.7223 32.0059) rotate(-35.9316) scale(23.8305 37.2851)">
<stop offset="0.661" stop-color="#FFEA49" stop-opacity="0"/>
<stop offset="1" stop-color="#FFEA49"/>
</radialGradient>
</defs>
</svg>
