<svg width="353" height="94" viewBox="0 0 353 94" fill="none" xmlns="http://www.w3.org/2000/svg">
<path d="M124.25 72H114.156L114.219 63.5625H124.25C126.333 63.5625 128.094 63.0625 129.531 62.0625C130.99 61.0625 132.094 59.5729 132.844 57.5938C133.615 55.5938 134 53.1354 134 50.2188V48.25C134 46.0625 133.781 44.1458 133.344 42.5C132.927 40.8333 132.302 39.4479 131.469 38.3438C130.635 37.2188 129.594 36.375 128.344 35.8125C127.115 35.25 125.698 34.9688 124.094 34.9688H113.969V26.5H124.094C127.177 26.5 130 27.0312 132.562 28.0938C135.146 29.1354 137.375 30.6354 139.25 32.5938C141.146 34.5312 142.604 36.8333 143.625 39.5C144.667 42.1458 145.188 45.0833 145.188 48.3125V50.2188C145.188 53.4271 144.667 56.3646 143.625 59.0312C142.604 61.6979 141.156 64 139.281 65.9375C137.406 67.875 135.188 69.375 132.625 70.4375C130.083 71.4792 127.292 72 124.25 72ZM120.438 26.5V72H109.469V26.5H120.438ZM149.734 55.4375V54.7812C149.734 52.3021 150.088 50.0208 150.796 47.9375C151.505 45.8333 152.546 44.0104 153.921 42.4688C155.296 40.9271 156.994 39.7292 159.015 38.875C161.036 38 163.369 37.5625 166.015 37.5625C168.682 37.5625 171.025 38 173.046 38.875C175.088 39.7292 176.796 40.9271 178.171 42.4688C179.546 44.0104 180.588 45.8333 181.296 47.9375C182.005 50.0208 182.359 52.3021 182.359 54.7812V55.4375C182.359 57.8958 182.005 60.1771 181.296 62.2812C180.588 64.3646 179.546 66.1875 178.171 67.75C176.796 69.2917 175.098 70.4896 173.077 71.3438C171.057 72.1979 168.723 72.625 166.077 72.625C163.432 72.625 161.088 72.1979 159.046 71.3438C157.005 70.4896 155.296 69.2917 153.921 67.75C152.546 66.1875 151.505 64.3646 150.796 62.2812C150.088 60.1771 149.734 57.8958 149.734 55.4375ZM160.265 54.7812V55.4375C160.265 56.7083 160.359 57.8958 160.546 59C160.734 60.1042 161.046 61.0729 161.484 61.9062C161.921 62.7188 162.515 63.3542 163.265 63.8125C164.015 64.2708 164.952 64.5 166.077 64.5C167.182 64.5 168.098 64.2708 168.827 63.8125C169.577 63.3542 170.171 62.7188 170.609 61.9062C171.046 61.0729 171.359 60.1042 171.546 59C171.734 57.8958 171.827 56.7083 171.827 55.4375V54.7812C171.827 53.5521 171.734 52.3958 171.546 51.3125C171.359 50.2083 171.046 49.2396 170.609 48.4062C170.171 47.5521 169.577 46.8854 168.827 46.4062C168.077 45.9271 167.14 45.6875 166.015 45.6875C164.911 45.6875 163.984 45.9271 163.234 46.4062C162.505 46.8854 161.921 47.5521 161.484 48.4062C161.046 49.2396 160.734 50.2083 160.546 51.3125C160.359 52.3958 160.265 53.5521 160.265 54.7812ZM204.061 72.625C201.311 72.625 198.853 72.1979 196.686 71.3438C194.52 70.4688 192.686 69.2708 191.186 67.75C189.707 66.2292 188.572 64.4792 187.78 62.5C187.009 60.5208 186.624 58.4271 186.624 56.2188V55.0312C186.624 52.5521 186.967 50.2604 187.655 48.1562C188.342 46.0312 189.363 44.1771 190.717 42.5938C192.072 41.0104 193.77 39.7812 195.811 38.9062C197.853 38.0104 200.228 37.5625 202.936 37.5625C205.332 37.5625 207.478 37.9479 209.374 38.7188C211.27 39.4896 212.874 40.5938 214.186 42.0312C215.52 43.4688 216.53 45.2083 217.217 47.25C217.926 49.2917 218.28 51.5833 218.28 54.125V58.4062H190.655V51.8125H207.999V51C208.02 49.875 207.822 48.9167 207.405 48.125C207.009 47.3333 206.426 46.7292 205.655 46.3125C204.884 45.8958 203.947 45.6875 202.842 45.6875C201.697 45.6875 200.749 45.9375 199.999 46.4375C199.27 46.9375 198.697 47.625 198.28 48.5C197.884 49.3542 197.603 50.3438 197.436 51.4688C197.27 52.5938 197.186 53.7812 197.186 55.0312V56.2188C197.186 57.4688 197.353 58.6042 197.686 59.625C198.04 60.6458 198.54 61.5208 199.186 62.25C199.853 62.9583 200.645 63.5104 201.561 63.9062C202.499 64.3021 203.561 64.5 204.749 64.5C206.186 64.5 207.603 64.2292 208.999 63.6875C210.395 63.1458 211.592 62.25 212.592 61L217.374 66.6875C216.686 67.6667 215.707 68.6146 214.436 69.5312C213.186 70.4479 211.686 71.1979 209.936 71.7812C208.186 72.3438 206.228 72.625 204.061 72.625ZM242.982 36.0625L231.889 72H220.107L236.826 26.5H244.295L242.982 36.0625ZM252.17 72L241.045 36.0625L239.607 26.5H247.17L263.982 72H252.17ZM251.732 55.0312V63.5H228.389V55.0312H251.732ZM276.591 44.6875V85H266.06V38.1875H275.872L276.591 44.6875ZM297.341 54.6875V55.3438C297.341 57.8021 297.06 60.0833 296.497 62.1875C295.935 64.2917 295.102 66.125 293.997 67.6875C292.893 69.25 291.518 70.4688 289.872 71.3438C288.247 72.1979 286.362 72.625 284.216 72.625C282.195 72.625 280.456 72.1771 278.997 71.2812C277.539 70.3854 276.32 69.1458 275.341 67.5625C274.362 65.9792 273.57 64.1667 272.966 62.125C272.362 60.0833 271.883 57.9271 271.529 55.6562V54.8125C271.883 52.375 272.362 50.1146 272.966 48.0312C273.57 45.9271 274.362 44.0938 275.341 42.5312C276.32 40.9688 277.529 39.75 278.966 38.875C280.425 38 282.164 37.5625 284.185 37.5625C286.331 37.5625 288.216 37.9688 289.841 38.7812C291.487 39.5938 292.862 40.7604 293.966 42.2812C295.091 43.7812 295.935 45.5833 296.497 47.6875C297.06 49.7917 297.341 52.125 297.341 54.6875ZM286.81 55.3438V54.6875C286.81 53.375 286.716 52.1771 286.529 51.0938C286.341 49.9896 286.039 49.0312 285.622 48.2188C285.227 47.4062 284.695 46.7812 284.029 46.3438C283.362 45.9062 282.539 45.6875 281.56 45.6875C280.435 45.6875 279.487 45.8646 278.716 46.2188C277.966 46.5521 277.362 47.0729 276.904 47.7812C276.466 48.4688 276.154 49.3333 275.966 50.375C275.8 51.3958 275.727 52.5938 275.747 53.9688V56.5312C275.706 58.1146 275.862 59.5104 276.216 60.7188C276.57 61.9062 277.185 62.8333 278.06 63.5C278.935 64.1667 280.122 64.5 281.622 64.5C282.622 64.5 283.456 64.2708 284.122 63.8125C284.789 63.3333 285.32 62.6771 285.716 61.8438C286.112 60.9896 286.393 60.0104 286.56 58.9062C286.727 57.8021 286.81 56.6146 286.81 55.3438ZM313.294 44.6875V85H302.762V38.1875H312.575L313.294 44.6875ZM334.044 54.6875V55.3438C334.044 57.8021 333.762 60.0833 333.2 62.1875C332.637 64.2917 331.804 66.125 330.7 67.6875C329.596 69.25 328.221 70.4688 326.575 71.3438C324.95 72.1979 323.065 72.625 320.919 72.625C318.898 72.625 317.158 72.1771 315.7 71.2812C314.242 70.3854 313.023 69.1458 312.044 67.5625C311.065 65.9792 310.273 64.1667 309.669 62.125C309.065 60.0833 308.585 57.9271 308.231 55.6562V54.8125C308.585 52.375 309.065 50.1146 309.669 48.0312C310.273 45.9271 311.065 44.0938 312.044 42.5312C313.023 40.9688 314.231 39.75 315.669 38.875C317.127 38 318.867 37.5625 320.887 37.5625C323.033 37.5625 324.919 37.9688 326.544 38.7812C328.19 39.5938 329.565 40.7604 330.669 42.2812C331.794 43.7812 332.637 45.5833 333.2 47.6875C333.762 49.7917 334.044 52.125 334.044 54.6875ZM323.512 55.3438V54.6875C323.512 53.375 323.419 52.1771 323.231 51.0938C323.044 49.9896 322.742 49.0312 322.325 48.2188C321.929 47.4062 321.398 46.7812 320.731 46.3438C320.065 45.9062 319.242 45.6875 318.262 45.6875C317.137 45.6875 316.19 45.8646 315.419 46.2188C314.669 46.5521 314.065 47.0729 313.606 47.7812C313.169 48.4688 312.856 49.3333 312.669 50.375C312.502 51.3958 312.429 52.5938 312.45 53.9688V56.5312C312.408 58.1146 312.565 59.5104 312.919 60.7188C313.273 61.9062 313.887 62.8333 314.762 63.5C315.637 64.1667 316.825 64.5 318.325 64.5C319.325 64.5 320.158 64.2708 320.825 63.8125C321.492 63.3333 322.023 62.6771 322.419 61.8438C322.815 60.9896 323.096 60.0104 323.262 58.9062C323.429 57.8021 323.512 56.6146 323.512 55.3438Z" fill="white"/>
<g filter="url(#filter0_i_203_590)">
<path d="M20.016 19.0056C21.3438 18.3505 24.8335 16.9787 30.5293 17.5016C40.0204 18.8763 47.2966 19.9749 49.8052 20.3803L43.704 24.0581C45.1342 25.4907 46.3626 27.1114 47.3554 28.8756L48.4863 27.5772L80.3787 55.4687C81.436 56.3951 82.1671 57.6372 82.4638 59.0113C82.7605 60.3853 82.6072 61.8184 82.0264 63.0986C81.4456 64.3787 80.4683 65.438 79.2389 66.1197C78.0095 66.8013 76.5934 67.0693 75.1999 66.8839C75.8488 68.1563 76.0977 69.5952 75.9138 71.0117C75.7299 72.4281 75.1218 73.7558 74.1694 74.8203C73.2171 75.8848 71.965 76.6363 70.5777 76.9762C69.1904 77.316 67.7328 77.2283 66.3962 76.7245C66.3573 77.9575 65.9969 79.159 65.3506 80.2098C64.7044 81.2606 63.7948 82.1243 62.7119 82.7153C61.629 83.3063 60.4105 83.6041 59.1771 83.5791C57.9438 83.5542 56.7383 83.2074 55.6802 82.573C55.4393 83.8156 54.8752 84.9727 54.0447 85.9278C53.2143 86.8829 52.1468 87.6024 50.9499 88.0137C49.7529 88.425 48.4687 88.5136 47.2265 88.2707C45.9844 88.0277 44.8282 87.4617 43.8744 86.6297L17.8952 63.9816C17.0594 63.2545 16.4021 62.3448 15.9743 61.323C15.5464 60.3012 15.3594 59.1947 15.4277 58.089C12.0846 55.7996 9.43092 52.6398 7.75371 48.9513C6.07649 45.2629 5.43952 41.1861 5.91167 37.1618C6.38381 33.1375 7.94711 29.3189 10.4325 26.1188C12.9179 22.9187 16.2338 20.459 20.016 19.0056Z" fill="url(#paint0_linear_203_590)"/>
<path d="M20.016 19.0056C21.3438 18.3505 24.8335 16.9787 30.5293 17.5016C40.0204 18.8763 47.2966 19.9749 49.8052 20.3803L43.704 24.0581C45.1342 25.4907 46.3626 27.1114 47.3554 28.8756L48.4863 27.5772L80.3787 55.4687C81.436 56.3951 82.1671 57.6372 82.4638 59.0113C82.7605 60.3853 82.6072 61.8184 82.0264 63.0986C81.4456 64.3787 80.4683 65.438 79.2389 66.1197C78.0095 66.8013 76.5934 67.0693 75.1999 66.8839C75.8488 68.1563 76.0977 69.5952 75.9138 71.0117C75.7299 72.4281 75.1218 73.7558 74.1694 74.8203C73.2171 75.8848 71.965 76.6363 70.5777 76.9762C69.1904 77.316 67.7328 77.2283 66.3962 76.7245C66.3573 77.9575 65.9969 79.159 65.3506 80.2098C64.7044 81.2606 63.7948 82.1243 62.7119 82.7153C61.629 83.3063 60.4105 83.6041 59.1771 83.5791C57.9438 83.5542 56.7383 83.2074 55.6802 82.573C55.4393 83.8156 54.8752 84.9727 54.0447 85.9278C53.2143 86.8829 52.1468 87.6024 50.9499 88.0137C49.7529 88.425 48.4687 88.5136 47.2265 88.2707C45.9844 88.0277 44.8282 87.4617 43.8744 86.6297L17.8952 63.9816C17.0594 63.2545 16.4021 62.3448 15.9743 61.323C15.5464 60.3012 15.3594 59.1947 15.4277 58.089C12.0846 55.7996 9.43092 52.6398 7.75371 48.9513C6.07649 45.2629 5.43952 41.1861 5.91167 37.1618C6.38381 33.1375 7.94711 29.3189 10.4325 26.1188C12.9179 22.9187 16.2338 20.459 20.016 19.0056Z" fill="url(#paint1_radial_203_590)"/>
</g>
<path d="M20.016 19.0056C21.3438 18.3505 24.8335 16.9787 30.5293 17.5016C40.0204 18.8763 47.2966 19.9749 49.8052 20.3803L43.704 24.0581C45.1342 25.4907 46.3626 27.1114 47.3554 28.8756L48.4863 27.5772L80.3787 55.4687C81.436 56.3951 82.1671 57.6372 82.4638 59.0113C82.7605 60.3853 82.6072 61.8184 82.0264 63.0986C81.4456 64.3787 80.4683 65.438 79.2389 66.1197C78.0095 66.8013 76.5934 67.0693 75.1999 66.8839C75.8488 68.1563 76.0977 69.5952 75.9138 71.0117C75.7299 72.4281 75.1218 73.7558 74.1694 74.8203C73.2171 75.8848 71.965 76.6363 70.5777 76.9762C69.1904 77.316 67.7328 77.2283 66.3962 76.7245C66.3573 77.9575 65.9969 79.159 65.3506 80.2098C64.7044 81.2606 63.7948 82.1243 62.7119 82.7153C61.629 83.3063 60.4105 83.6041 59.1771 83.5791C57.9438 83.5542 56.7383 83.2074 55.6802 82.573C55.4393 83.8156 54.8752 84.9727 54.0447 85.9278C53.2143 86.8829 52.1468 87.6024 50.9499 88.0137C49.7529 88.425 48.4687 88.5136 47.2265 88.2707C45.9844 88.0277 44.8282 87.4617 43.8744 86.6297L17.8952 63.9816C17.0594 63.2545 16.4021 62.3448 15.9743 61.323C15.5464 60.3012 15.3594 59.1947 15.4277 58.089C12.0846 55.7996 9.43092 52.6398 7.75371 48.9513C6.07649 45.2629 5.43952 41.1861 5.91167 37.1618C6.38381 33.1375 7.94711 29.3189 10.4325 26.1188C12.9179 22.9187 16.2338 20.459 20.016 19.0056Z" fill="url(#paint2_radial_203_590)"/>
<path d="M20.016 19.0056C21.3438 18.3505 24.8335 16.9787 30.5293 17.5016C40.0204 18.8763 47.2966 19.9749 49.8052 20.3803L43.704 24.0581C45.1342 25.4907 46.3626 27.1114 47.3554 28.8756L48.4863 27.5772L80.3787 55.4687C81.436 56.3951 82.1671 57.6372 82.4638 59.0113C82.7605 60.3853 82.6072 61.8184 82.0264 63.0986C81.4456 64.3787 80.4683 65.438 79.2389 66.1197C78.0095 66.8013 76.5934 67.0693 75.1999 66.8839C75.8488 68.1563 76.0977 69.5952 75.9138 71.0117C75.7299 72.4281 75.1218 73.7558 74.1694 74.8203C73.2171 75.8848 71.965 76.6363 70.5777 76.9762C69.1904 77.316 67.7328 77.2283 66.3962 76.7245C66.3573 77.9575 65.9969 79.159 65.3506 80.2098C64.7044 81.2606 63.7948 82.1243 62.7119 82.7153C61.629 83.3063 60.4105 83.6041 59.1771 83.5791C57.9438 83.5542 56.7383 83.2074 55.6802 82.573C55.4393 83.8156 54.8752 84.9727 54.0447 85.9278C53.2143 86.8829 52.1468 87.6024 50.9499 88.0137C49.7529 88.425 48.4687 88.5136 47.2265 88.2707C45.9844 88.0277 44.8282 87.4617 43.8744 86.6297L17.8952 63.9816C17.0594 63.2545 16.4021 62.3448 15.9743 61.323C15.5464 60.3012 15.3594 59.1947 15.4277 58.089C12.0846 55.7996 9.43092 52.6398 7.75371 48.9513C6.07649 45.2629 5.43952 41.1861 5.91167 37.1618C6.38381 33.1375 7.94711 29.3189 10.4325 26.1188C12.9179 22.9187 16.2338 20.459 20.016 19.0056Z" fill="url(#paint3_radial_203_590)"/>
<path d="M20.016 19.0056C21.3438 18.3505 24.8335 16.9787 30.5293 17.5016C40.0204 18.8763 47.2966 19.9749 49.8052 20.3803L43.704 24.0581C45.1342 25.4907 46.3626 27.1114 47.3554 28.8756L48.4863 27.5772L80.3787 55.4687C81.436 56.3951 82.1671 57.6372 82.4638 59.0113C82.7605 60.3853 82.6072 61.8184 82.0264 63.0986C81.4456 64.3787 80.4683 65.438 79.2389 66.1197C78.0095 66.8013 76.5934 67.0693 75.1999 66.8839C75.8488 68.1563 76.0977 69.5952 75.9138 71.0117C75.7299 72.4281 75.1218 73.7558 74.1694 74.8203C73.2171 75.8848 71.965 76.6363 70.5777 76.9762C69.1904 77.316 67.7328 77.2283 66.3962 76.7245C66.3573 77.9575 65.9969 79.159 65.3506 80.2098C64.7044 81.2606 63.7948 82.1243 62.7119 82.7153C61.629 83.3063 60.4105 83.6041 59.1771 83.5791C57.9438 83.5542 56.7383 83.2074 55.6802 82.573C55.4393 83.8156 54.8752 84.9727 54.0447 85.9278C53.2143 86.8829 52.1468 87.6024 50.9499 88.0137C49.7529 88.425 48.4687 88.5136 47.2265 88.2707C45.9844 88.0277 44.8282 87.4617 43.8744 86.6297L17.8952 63.9816C17.0594 63.2545 16.4021 62.3448 15.9743 61.323C15.5464 60.3012 15.3594 59.1947 15.4277 58.089C12.0846 55.7996 9.43092 52.6398 7.75371 48.9513C6.07649 45.2629 5.43952 41.1861 5.91167 37.1618C6.38381 33.1375 7.94711 29.3189 10.4325 26.1188C12.9179 22.9187 16.2338 20.459 20.016 19.0056Z" fill="url(#paint4_radial_203_590)"/>
<path d="M20.016 19.0056C21.3438 18.3505 24.8335 16.9787 30.5293 17.5016C40.0204 18.8763 47.2966 19.9749 49.8052 20.3803L43.704 24.0581C45.1342 25.4907 46.3626 27.1114 47.3554 28.8756L48.4863 27.5772L80.3787 55.4687C81.436 56.3951 82.1671 57.6372 82.4638 59.0113C82.7605 60.3853 82.6072 61.8184 82.0264 63.0986C81.4456 64.3787 80.4683 65.438 79.2389 66.1197C78.0095 66.8013 76.5934 67.0693 75.1999 66.8839C75.8488 68.1563 76.0977 69.5952 75.9138 71.0117C75.7299 72.4281 75.1218 73.7558 74.1694 74.8203C73.2171 75.8848 71.965 76.6363 70.5777 76.9762C69.1904 77.316 67.7328 77.2283 66.3962 76.7245C66.3573 77.9575 65.9969 79.159 65.3506 80.2098C64.7044 81.2606 63.7948 82.1243 62.7119 82.7153C61.629 83.3063 60.4105 83.6041 59.1771 83.5791C57.9438 83.5542 56.7383 83.2074 55.6802 82.573C55.4393 83.8156 54.8752 84.9727 54.0447 85.9278C53.2143 86.8829 52.1468 87.6024 50.9499 88.0137C49.7529 88.425 48.4687 88.5136 47.2265 88.2707C45.9844 88.0277 44.8282 87.4617 43.8744 86.6297L17.8952 63.9816C17.0594 63.2545 16.4021 62.3448 15.9743 61.323C15.5464 60.3012 15.3594 59.1947 15.4277 58.089C12.0846 55.7996 9.43092 52.6398 7.75371 48.9513C6.07649 45.2629 5.43952 41.1861 5.91167 37.1618C6.38381 33.1375 7.94711 29.3189 10.4325 26.1188C12.9179 22.9187 16.2338 20.459 20.016 19.0056Z" fill="url(#paint5_radial_203_590)"/>
<path d="M20.016 19.0056C21.3438 18.3505 24.8335 16.9787 30.5293 17.5016C40.0204 18.8763 47.2966 19.9749 49.8052 20.3803L43.704 24.0581C45.1342 25.4907 46.3626 27.1114 47.3554 28.8756L48.4863 27.5772L80.3787 55.4687C81.436 56.3951 82.1671 57.6372 82.4638 59.0113C82.7605 60.3853 82.6072 61.8184 82.0264 63.0986C81.4456 64.3787 80.4683 65.438 79.2389 66.1197C78.0095 66.8013 76.5934 67.0693 75.1999 66.8839C75.8488 68.1563 76.0977 69.5952 75.9138 71.0117C75.7299 72.4281 75.1218 73.7558 74.1694 74.8203C73.2171 75.8848 71.965 76.6363 70.5777 76.9762C69.1904 77.316 67.7328 77.2283 66.3962 76.7245C66.3573 77.9575 65.9969 79.159 65.3506 80.2098C64.7044 81.2606 63.7948 82.1243 62.7119 82.7153C61.629 83.3063 60.4105 83.6041 59.1771 83.5791C57.9438 83.5542 56.7383 83.2074 55.6802 82.573C55.4393 83.8156 54.8752 84.9727 54.0447 85.9278C53.2143 86.8829 52.1468 87.6024 50.9499 88.0137C49.7529 88.425 48.4687 88.5136 47.2265 88.2707C45.9844 88.0277 44.8282 87.4617 43.8744 86.6297L17.8952 63.9816C17.0594 63.2545 16.4021 62.3448 15.9743 61.323C15.5464 60.3012 15.3594 59.1947 15.4277 58.089C12.0846 55.7996 9.43092 52.6398 7.75371 48.9513C6.07649 45.2629 5.43952 41.1861 5.91167 37.1618C6.38381 33.1375 7.94711 29.3189 10.4325 26.1188C12.9179 22.9187 16.2338 20.459 20.016 19.0056Z" fill="url(#paint6_radial_203_590)"/>
<g filter="url(#filter1_f_203_590)">
<path fill-rule="evenodd" clip-rule="evenodd" d="M13.7532 53.6152C12.7396 54.6446 12.1446 56.0138 12.0838 57.4572C12.023 58.9006 12.5007 60.3151 13.4242 61.426C14.1118 62.2629 15.0095 62.9019 16.0253 63.2777C17.0411 63.6534 18.1385 63.7524 19.2052 63.5645C18.6873 64.631 18.5151 65.8324 18.7125 67.0014C18.91 68.1704 19.4673 69.2486 20.3068 70.0858C21.9283 71.7014 24.3517 72.286 26.405 71.628C26.0525 73.3787 26.8838 75.3674 28.3056 76.7921C29.7097 78.1933 31.9128 78.5487 33.6636 77.9906C33.4433 79.5827 33.9191 81.31 34.9737 82.576C36.9418 84.9436 40.7694 85.5341 43.1987 83.5043L47.1438 79.43C49.153 77.4589 48.9944 73.6666 47.1438 71.5457C45.8895 70.1034 44.1064 69.466 42.4144 69.7098C43.5571 67.7152 43.1047 65.045 41.68 63.4147C40.2406 61.7697 38.2784 61.1323 36.5394 61.5053C36.9948 60.4135 37.1162 59.2112 36.8882 58.0504C36.6602 56.8897 36.0931 55.8225 35.2586 54.9841C33.4168 53.1775 30.5939 52.9102 28.4143 54.1028C28.6592 52.8622 28.4976 51.5756 27.9536 50.434C27.4096 49.2924 26.5121 48.3566 25.3943 47.7654C24.2764 47.1741 22.9977 46.959 21.7479 47.1518C20.4981 47.3446 19.3438 47.9352 18.4561 48.8359L13.7532 53.6152Z" fill="#FFB21A"/>
</g>
<g filter="url(#filter2_f_203_590)">
<path d="M44.189 75.9373L51.2742 82.2705" stroke="url(#paint7_linear_203_590)" stroke-width="1.5" stroke-linecap="round"/>
</g>
<g filter="url(#filter3_f_203_590)">
<path d="M38.7987 23.8438C37.0557 24.3315 35.3364 24.9 33.6463 25.5475L33.6522 25.5622C32.7443 25.9843 31.975 26.6557 31.4341 27.4983C30.8932 28.3408 30.603 29.3197 30.5972 30.3209C30.5972 33.2467 33.0265 35.6143 36.0198 35.6143C36.7483 35.6143 37.4445 35.4733 38.079 35.2178C38.593 35.0591 39.1365 34.8858 39.7034 34.7066H39.7122L41.228 34.219C51.5033 30.9114 46.398 29.7481 38.7987 23.8438Z" fill="#D77A15"/>
</g>
<g filter="url(#filter4_f_203_590)">
<path d="M53.2275 36.4836L78.3784 58.8821" stroke="url(#paint8_linear_203_590)" stroke-width="1.5" stroke-linecap="round"/>
</g>
<g filter="url(#filter5_f_203_590)">
<path d="M65.0654 63.3413L72.1536 69.6746" stroke="url(#paint9_linear_203_590)" stroke-width="1.5" stroke-linecap="round"/>
</g>
<g filter="url(#filter6_f_203_590)">
<path d="M55.5098 70.8877L62.595 77.2239" stroke="url(#paint10_linear_203_590)" stroke-width="1.5" stroke-linecap="round"/>
</g>
<path d="M10.0082 62.4484C8.98397 61.2169 8.45402 59.6487 8.52133 58.0483C8.58865 56.4479 9.24842 54.9298 10.3725 53.7886L15.5865 48.4923C16.1913 47.8815 16.9108 47.3962 17.7038 47.0644C18.4968 46.7326 19.3475 46.5609 20.2071 46.5591C21.0667 46.5573 21.9181 46.7254 22.7125 47.0538C23.5068 47.3823 24.2284 47.8645 24.8358 48.4728C25.4431 49.0811 25.9242 49.8034 26.2513 50.5983C26.5785 51.3932 26.7453 52.2449 26.7421 53.1045C26.7389 53.9641 26.5658 54.8145 26.2328 55.6069C25.8997 56.3994 25.4133 57.1182 24.8015 57.7219L19.511 63.2033C16.8144 65.8471 12.4229 65.3506 10.0082 62.4484Z" fill="url(#paint11_linear_203_590)"/>
<path d="M10.0082 62.4484C8.98397 61.2169 8.45402 59.6487 8.52133 58.0483C8.58865 56.4479 9.24842 54.9298 10.3725 53.7886L15.5865 48.4923C16.1913 47.8815 16.9108 47.3962 17.7038 47.0644C18.4968 46.7326 19.3475 46.5609 20.2071 46.5591C21.0667 46.5573 21.9181 46.7254 22.7125 47.0538C23.5068 47.3823 24.2284 47.8645 24.8358 48.4728C25.4431 49.0811 25.9242 49.8034 26.2513 50.5983C26.5785 51.3932 26.7453 52.2449 26.7421 53.1045C26.7389 53.9641 26.5658 54.8145 26.2328 55.6069C25.8997 56.3994 25.4133 57.1182 24.8015 57.7219L19.511 63.2033C16.8144 65.8471 12.4229 65.3506 10.0082 62.4484Z" fill="url(#paint12_linear_203_590)"/>
<path d="M10.0082 62.4484C8.98397 61.2169 8.45402 59.6487 8.52133 58.0483C8.58865 56.4479 9.24842 54.9298 10.3725 53.7886L15.5865 48.4923C16.1913 47.8815 16.9108 47.3962 17.7038 47.0644C18.4968 46.7326 19.3475 46.5609 20.2071 46.5591C21.0667 46.5573 21.9181 46.7254 22.7125 47.0538C23.5068 47.3823 24.2284 47.8645 24.8358 48.4728C25.4431 49.0811 25.9242 49.8034 26.2513 50.5983C26.5785 51.3932 26.7453 52.2449 26.7421 53.1045C26.7389 53.9641 26.5658 54.8145 26.2328 55.6069C25.8997 56.3994 25.4133 57.1182 24.8015 57.7219L19.511 63.2033C16.8144 65.8471 12.4229 65.3506 10.0082 62.4484Z" fill="url(#paint13_radial_203_590)"/>
<path d="M10.0082 62.4484C8.98397 61.2169 8.45402 59.6487 8.52133 58.0483C8.58865 56.4479 9.24842 54.9298 10.3725 53.7886L15.5865 48.4923C16.1913 47.8815 16.9108 47.3962 17.7038 47.0644C18.4968 46.7326 19.3475 46.5609 20.2071 46.5591C21.0667 46.5573 21.9181 46.7254 22.7125 47.0538C23.5068 47.3823 24.2284 47.8645 24.8358 48.4728C25.4431 49.0811 25.9242 49.8034 26.2513 50.5983C26.5785 51.3932 26.7453 52.2449 26.7421 53.1045C26.7389 53.9641 26.5658 54.8145 26.2328 55.6069C25.8997 56.3994 25.4133 57.1182 24.8015 57.7219L19.511 63.2033C16.8144 65.8471 12.4229 65.3506 10.0082 62.4484Z" fill="url(#paint14_radial_203_590)"/>
<path d="M17.6398 72.0569C16.4604 70.8812 15.7932 69.2872 15.7833 67.6219C15.7734 65.9566 16.4216 64.3548 17.5869 63.1651L25.1304 55.4689C27.5862 52.9632 31.7133 52.8515 34.219 55.3073C36.7306 57.7748 36.8099 62.0019 34.3277 64.5017L26.7313 72.336C24.2697 74.8123 20.1102 74.5156 17.6368 72.051L17.6398 72.0569Z" fill="url(#paint15_linear_203_590)"/>
<path d="M17.6398 72.0569C16.4604 70.8812 15.7932 69.2872 15.7833 67.6219C15.7734 65.9566 16.4216 64.3548 17.5869 63.1651L25.1304 55.4689C27.5862 52.9632 31.7133 52.8515 34.219 55.3073C36.7306 57.7748 36.8099 62.0019 34.3277 64.5017L26.7313 72.336C24.2697 74.8123 20.1102 74.5156 17.6368 72.051L17.6398 72.0569Z" fill="url(#paint16_linear_203_590)"/>
<path d="M17.6398 72.0569C16.4604 70.8812 15.7932 69.2872 15.7833 67.6219C15.7734 65.9566 16.4216 64.3548 17.5869 63.1651L25.1304 55.4689C27.5862 52.9632 31.7133 52.8515 34.219 55.3073C36.7306 57.7748 36.8099 62.0019 34.3277 64.5017L26.7313 72.336C24.2697 74.8123 20.1102 74.5156 17.6368 72.051L17.6398 72.0569Z" fill="url(#paint17_radial_203_590)"/>
<path d="M17.6398 72.0569C16.4604 70.8812 15.7932 69.2872 15.7833 67.6219C15.7734 65.9566 16.4216 64.3548 17.5869 63.1651L25.1304 55.4689C27.5862 52.9632 31.7133 52.8515 34.219 55.3073C36.7306 57.7748 36.8099 62.0019 34.3277 64.5017L26.7313 72.336C24.2697 74.8123 20.1102 74.5156 17.6368 72.051L17.6398 72.0569Z" fill="url(#paint18_radial_203_590)"/>
<path d="M33.899 85.9013C31.9808 83.5954 31.7957 79.9147 33.899 77.7762L38.9456 73.2818C41.3543 70.8349 45.1437 71.0787 47.3968 73.6696C49.4472 76.0196 49.6234 80.2261 47.3968 82.4116L43.0258 86.9353C40.3292 89.1825 36.0845 88.5274 33.899 85.9013Z" fill="url(#paint19_linear_203_590)"/>
<path d="M33.899 85.9013C31.9808 83.5954 31.7957 79.9147 33.899 77.7762L38.9456 73.2818C41.3543 70.8349 45.1437 71.0787 47.3968 73.6696C49.4472 76.0196 49.6234 80.2261 47.3968 82.4116L43.0258 86.9353C40.3292 89.1825 36.0845 88.5274 33.899 85.9013Z" fill="url(#paint20_linear_203_590)"/>
<path d="M33.899 85.9013C31.9808 83.5954 31.7957 79.9147 33.899 77.7762L38.9456 73.2818C41.3543 70.8349 45.1437 71.0787 47.3968 73.6696C49.4472 76.0196 49.6234 80.2261 47.3968 82.4116L43.0258 86.9353C40.3292 89.1825 36.0845 88.5274 33.899 85.9013Z" fill="url(#paint21_radial_203_590)"/>
<path d="M33.899 85.9013C31.9808 83.5954 31.7957 79.9147 33.899 77.7762L38.9456 73.2818C41.3543 70.8349 45.1437 71.0787 47.3968 73.6696C49.4472 76.0196 49.6234 80.2261 47.3968 82.4116L43.0258 86.9353C40.3292 89.1825 36.0845 88.5274 33.899 85.9013Z" fill="url(#paint22_radial_203_590)"/>
<path d="M26.508 79.4888C24.2843 77.2651 23.3649 73.7959 25.5857 71.5751L33.0968 63.9259C35.3205 61.7051 38.966 61.9401 41.3395 64.6544C43.1901 66.7723 43.5602 70.4795 41.3395 72.7031L34.5538 79.4888C32.7561 81.5568 28.7288 81.7095 26.5051 79.4888H26.508Z" fill="url(#paint23_linear_203_590)"/>
<path d="M26.508 79.4888C24.2843 77.2651 23.3649 73.7959 25.5857 71.5751L33.0968 63.9259C35.3205 61.7051 38.966 61.9401 41.3395 64.6544C43.1901 66.7723 43.5602 70.4795 41.3395 72.7031L34.5538 79.4888C32.7561 81.5568 28.7288 81.7095 26.5051 79.4888H26.508Z" fill="url(#paint24_linear_203_590)"/>
<path d="M26.508 79.4888C24.2843 77.2651 23.3649 73.7959 25.5857 71.5751L33.0968 63.9259C35.3205 61.7051 38.966 61.9401 41.3395 64.6544C43.1901 66.7723 43.5602 70.4795 41.3395 72.7031L34.5538 79.4888C32.7561 81.5568 28.7288 81.7095 26.5051 79.4888H26.508Z" fill="url(#paint25_radial_203_590)"/>
<path d="M26.508 79.4888C24.2843 77.2651 23.3649 73.7959 25.5857 71.5751L33.0968 63.9259C35.3205 61.7051 38.966 61.9401 41.3395 64.6544C43.1901 66.7723 43.5602 70.4795 41.3395 72.7031L34.5538 79.4888C32.7561 81.5568 28.7288 81.7095 26.5051 79.4888H26.508Z" fill="url(#paint26_radial_203_590)"/>
<g filter="url(#filter7_i_203_590)">
<path d="M35.623 23.6058L35.6318 23.6234C34.1792 24.3129 33.0541 25.5436 32.4974 27.0522C31.9406 28.5607 31.9964 30.2273 32.6528 31.6952C33.3092 33.1631 34.5141 34.3158 36.0096 34.9066C37.5052 35.4974 39.1725 35.4794 40.655 34.8564L42.4997 34.2601L42.5085 34.2572C45.3109 33.3495 49.4381 31.9189 51.6882 31.4724C52.3873 31.3314 53.0747 31.5899 53.6123 32.0599L80.323 55.4454C85.1581 51.1977 88.3864 45.4138 88.3864 38.7075C88.3864 27.0045 79.1215 17.5193 67.0337 17.5193C58.7441 17.9305 45.5811 19.6607 35.623 23.6058Z" fill="#FBB439"/>
<path d="M35.623 23.6058L35.6318 23.6234C34.1792 24.3129 33.0541 25.5436 32.4974 27.0522C31.9406 28.5607 31.9964 30.2273 32.6528 31.6952C33.3092 33.1631 34.5141 34.3158 36.0096 34.9066C37.5052 35.4974 39.1725 35.4794 40.655 34.8564L42.4997 34.2601L42.5085 34.2572C45.3109 33.3495 49.4381 31.9189 51.6882 31.4724C52.3873 31.3314 53.0747 31.5899 53.6123 32.0599L80.323 55.4454C85.1581 51.1977 88.3864 45.4138 88.3864 38.7075C88.3864 27.0045 79.1215 17.5193 67.0337 17.5193C58.7441 17.9305 45.5811 19.6607 35.623 23.6058Z" fill="url(#paint27_radial_203_590)"/>
<path d="M35.623 23.6058L35.6318 23.6234C34.1792 24.3129 33.0541 25.5436 32.4974 27.0522C31.9406 28.5607 31.9964 30.2273 32.6528 31.6952C33.3092 33.1631 34.5141 34.3158 36.0096 34.9066C37.5052 35.4974 39.1725 35.4794 40.655 34.8564L42.4997 34.2601L42.5085 34.2572C45.3109 33.3495 49.4381 31.9189 51.6882 31.4724C52.3873 31.3314 53.0747 31.5899 53.6123 32.0599L80.323 55.4454C85.1581 51.1977 88.3864 45.4138 88.3864 38.7075C88.3864 27.0045 79.1215 17.5193 67.0337 17.5193C58.7441 17.9305 45.5811 19.6607 35.623 23.6058Z" fill="url(#paint28_radial_203_590)"/>
<path d="M35.623 23.6058L35.6318 23.6234C34.1792 24.3129 33.0541 25.5436 32.4974 27.0522C31.9406 28.5607 31.9964 30.2273 32.6528 31.6952C33.3092 33.1631 34.5141 34.3158 36.0096 34.9066C37.5052 35.4974 39.1725 35.4794 40.655 34.8564L42.4997 34.2601L42.5085 34.2572C45.3109 33.3495 49.4381 31.9189 51.6882 31.4724C52.3873 31.3314 53.0747 31.5899 53.6123 32.0599L80.323 55.4454C85.1581 51.1977 88.3864 45.4138 88.3864 38.7075C88.3864 27.0045 79.1215 17.5193 67.0337 17.5193C58.7441 17.9305 45.5811 19.6607 35.623 23.6058Z" fill="url(#paint29_radial_203_590)"/>
</g>
<path d="M35.623 23.6058L35.6318 23.6234C34.1792 24.3129 33.0541 25.5436 32.4974 27.0522C31.9406 28.5607 31.9964 30.2273 32.6528 31.6952C33.3092 33.1631 34.5141 34.3158 36.0096 34.9066C37.5052 35.4974 39.1725 35.4794 40.655 34.8564L42.4997 34.2601L42.5085 34.2572C45.3109 33.3495 49.4381 31.9189 51.6882 31.4724C52.3873 31.3314 53.0747 31.5899 53.6123 32.0599L80.323 55.4454C85.1581 51.1977 88.3864 45.4138 88.3864 38.7075C88.3864 27.0045 79.1215 17.5193 67.0337 17.5193C58.7441 17.9305 45.5811 19.6607 35.623 23.6058Z" fill="url(#paint30_radial_203_590)"/>
<g filter="url(#filter8_f_203_590)">
<path d="M55.037 27.9297C51.2036 28.8697 46.5359 30.2973 43.1255 31.4195C42.6488 31.5781 42.1451 31.6393 41.6442 31.5994C41.1434 31.5595 40.6558 31.4194 40.2102 31.1873C39.7646 30.9552 39.3703 30.6359 39.0505 30.2483C38.7308 29.8608 38.4923 29.413 38.3491 28.9314C37.838 27.1601 38.7368 25.283 40.4788 24.672C44.8556 23.1445 50.1901 21.761 54.0089 20.9825C55.839 20.6095 57.5486 21.8579 57.8776 23.6968C58.2213 25.6209 56.9346 27.4656 55.037 27.9268V27.9297Z" fill="#FFE746"/>
</g>
<defs>
<filter id="filter0_i_203_590" x="5.76025" y="15.8853" width="78.3511" height="72.5193" filterUnits="userSpaceOnUse" color-interpolation-filters="sRGB">
<feFlood flood-opacity="0" result="BackgroundImageFix"/>
<feBlend mode="normal" in="SourceGraphic" in2="BackgroundImageFix" result="shape"/>
<feColorMatrix in="SourceAlpha" type="matrix" values="0 0 0 0 0 0 0 0 0 0 0 0 0 0 0 0 0 0 127 0" result="hardAlpha"/>
<feOffset dx="1.5" dy="-1.5"/>
<feGaussianBlur stdDeviation="1.5"/>
<feComposite in2="hardAlpha" operator="arithmetic" k2="-1" k3="1"/>
<feColorMatrix type="matrix" values="0 0 0 0 0.945098 0 0 0 0 0.615686 0 0 0 0 0.156863 0 0 0 1 0"/>
<feBlend mode="normal" in2="shape" result="effect1_innerShadow_203_590"/>
</filter>
<filter id="filter1_f_203_590" x="11.3286" y="46.333" width="38.0132" height="39.1548" filterUnits="userSpaceOnUse" color-interpolation-filters="sRGB">
<feFlood flood-opacity="0" result="BackgroundImageFix"/>
<feBlend mode="normal" in="SourceGraphic" in2="BackgroundImageFix" result="shape"/>
<feGaussianBlur stdDeviation="0.375" result="effect1_foregroundBlur_203_590"/>
</filter>
<filter id="filter2_f_203_590" x="41.939" y="73.6873" width="11.5854" height="10.8333" filterUnits="userSpaceOnUse" color-interpolation-filters="sRGB">
<feFlood flood-opacity="0" result="BackgroundImageFix"/>
<feBlend mode="normal" in="SourceGraphic" in2="BackgroundImageFix" result="shape"/>
<feGaussianBlur stdDeviation="0.75" result="effect1_foregroundBlur_203_590"/>
</filter>
<filter id="filter3_f_203_590" x="29.7372" y="22.9837" width="18.1233" height="13.4905" filterUnits="userSpaceOnUse" color-interpolation-filters="sRGB">
<feFlood flood-opacity="0" result="BackgroundImageFix"/>
<feBlend mode="normal" in="SourceGraphic" in2="BackgroundImageFix" result="shape"/>
<feGaussianBlur stdDeviation="0.43" result="effect1_foregroundBlur_203_590"/>
</filter>
<filter id="filter4_f_203_590" x="50.9775" y="34.2336" width="29.6509" height="26.8984" filterUnits="userSpaceOnUse" color-interpolation-filters="sRGB">
<feFlood flood-opacity="0" result="BackgroundImageFix"/>
<feBlend mode="normal" in="SourceGraphic" in2="BackgroundImageFix" result="shape"/>
<feGaussianBlur stdDeviation="0.75" result="effect1_foregroundBlur_203_590"/>
</filter>
<filter id="filter5_f_203_590" x="62.8154" y="61.0913" width="11.5884" height="10.8333" filterUnits="userSpaceOnUse" color-interpolation-filters="sRGB">
<feFlood flood-opacity="0" result="BackgroundImageFix"/>
<feBlend mode="normal" in="SourceGraphic" in2="BackgroundImageFix" result="shape"/>
<feGaussianBlur stdDeviation="0.75" result="effect1_foregroundBlur_203_590"/>
</filter>
<filter id="filter6_f_203_590" x="53.2598" y="68.6377" width="11.5854" height="10.8362" filterUnits="userSpaceOnUse" color-interpolation-filters="sRGB">
<feFlood flood-opacity="0" result="BackgroundImageFix"/>
<feBlend mode="normal" in="SourceGraphic" in2="BackgroundImageFix" result="shape"/>
<feGaussianBlur stdDeviation="0.75" result="effect1_foregroundBlur_203_590"/>
</filter>
<filter id="filter7_i_203_590" x="32.1167" y="17.5193" width="56.2695" height="38.076" filterUnits="userSpaceOnUse" color-interpolation-filters="sRGB">
<feFlood flood-opacity="0" result="BackgroundImageFix"/>
<feBlend mode="normal" in="SourceGraphic" in2="BackgroundImageFix" result="shape"/>
<feColorMatrix in="SourceAlpha" type="matrix" values="0 0 0 0 0 0 0 0 0 0 0 0 0 0 0 0 0 0 127 0" result="hardAlpha"/>
<feOffset dy="0.15"/>
<feGaussianBlur stdDeviation="0.5"/>
<feComposite in2="hardAlpha" operator="arithmetic" k2="-1" k3="1"/>
<feColorMatrix type="matrix" values="0 0 0 0 0.917647 0 0 0 0 0.615686 0 0 0 0 0.137255 0 0 0 1 0"/>
<feBlend mode="normal" in2="shape" result="effect1_innerShadow_203_590"/>
</filter>
<filter id="filter8_f_203_590" x="36.2065" y="18.9165" width="23.7266" height="14.6948" filterUnits="userSpaceOnUse" color-interpolation-filters="sRGB">
<feFlood flood-opacity="0" result="BackgroundImageFix"/>
<feBlend mode="normal" in="SourceGraphic" in2="BackgroundImageFix" result="shape"/>
<feGaussianBlur stdDeviation="1" result="effect1_foregroundBlur_203_590"/>
</filter>
<linearGradient id="paint0_linear_203_590" x1="66.3522" y1="41.2189" x2="46.7091" y2="70.0417" gradientUnits="userSpaceOnUse">
<stop stop-color="#FFD741"/>
<stop offset="1" stop-color="#FFBE37"/>
</linearGradient>
<radialGradient id="paint1_radial_203_590" cx="0" cy="0" r="1" gradientUnits="userSpaceOnUse" gradientTransform="translate(58.6412 30.7556) rotate(122.645) scale(13.9543 19.4037)">
<stop stop-color="#FFDC38"/>
<stop offset="1" stop-color="#FFDC38" stop-opacity="0"/>
</radialGradient>
<radialGradient id="paint2_radial_203_590" cx="0" cy="0" r="1" gradientUnits="userSpaceOnUse" gradientTransform="translate(77.5499 70.9611) rotate(-136.375) scale(8.11609 6.47668)">
<stop stop-color="#FFCB41"/>
<stop offset="1" stop-color="#FFCB41" stop-opacity="0"/>
</radialGradient>
<radialGradient id="paint3_radial_203_590" cx="0" cy="0" r="1" gradientUnits="userSpaceOnUse" gradientTransform="translate(79.4799 67.4743) rotate(-138.778) scale(13.7909 3.76739)">
<stop stop-color="#F48E5A"/>
<stop offset="1" stop-color="#F48E5A" stop-opacity="0"/>
</radialGradient>
<radialGradient id="paint4_radial_203_590" cx="0" cy="0" r="1" gradientUnits="userSpaceOnUse" gradientTransform="translate(71.86 79.4064) rotate(-134.193) scale(18.4363 5.03643)">
<stop stop-color="#F48E5A"/>
<stop offset="1" stop-color="#F48E5A" stop-opacity="0"/>
</radialGradient>
<radialGradient id="paint5_radial_203_590" cx="0" cy="0" r="1" gradientUnits="userSpaceOnUse" gradientTransform="translate(59.0084 84.8232) rotate(-133.968) scale(14.4124 4.56994)">
<stop stop-color="#F48E5A"/>
<stop offset="1" stop-color="#F48E5A" stop-opacity="0"/>
</radialGradient>
<radialGradient id="paint6_radial_203_590" cx="0" cy="0" r="1" gradientUnits="userSpaceOnUse" gradientTransform="translate(49.0033 90.6042) rotate(-139.295) scale(16.4685 4.82725)">
<stop stop-color="#F48E5A"/>
<stop offset="1" stop-color="#F48E5A" stop-opacity="0"/>
</radialGradient>
<linearGradient id="paint7_linear_203_590" x1="51.2742" y1="82.2705" x2="40.6111" y2="71.8071" gradientUnits="userSpaceOnUse">
<stop stop-color="#FFCD43"/>
<stop offset="1" stop-color="#FFCD43" stop-opacity="0"/>
</linearGradient>
<linearGradient id="paint8_linear_203_590" x1="78.3784" y1="58.8821" x2="51.7559" y2="35.7493" gradientUnits="userSpaceOnUse">
<stop stop-color="#FFE647"/>
<stop offset="1" stop-color="#FFE647" stop-opacity="0"/>
</linearGradient>
<linearGradient id="paint9_linear_203_590" x1="72.1536" y1="69.6746" x2="61.4876" y2="59.2112" gradientUnits="userSpaceOnUse">
<stop stop-color="#FFD941"/>
<stop offset="1" stop-color="#FFD941" stop-opacity="0"/>
</linearGradient>
<linearGradient id="paint10_linear_203_590" x1="62.595" y1="77.2239" x2="51.929" y2="66.7576" gradientUnits="userSpaceOnUse">
<stop stop-color="#FFD63F"/>
<stop offset="1" stop-color="#FFD63F" stop-opacity="0"/>
</linearGradient>
<linearGradient id="paint11_linear_203_590" x1="22.566" y1="50.3988" x2="9.80555" y2="62.6981" gradientUnits="userSpaceOnUse">
<stop stop-color="#FFBC41"/>
<stop offset="1" stop-color="#E69429"/>
</linearGradient>
<linearGradient id="paint12_linear_203_590" x1="21.4175" y1="62.1958" x2="18.574" y2="59.1643" gradientUnits="userSpaceOnUse">
<stop stop-color="#E08407"/>
<stop offset="1" stop-color="#E08407" stop-opacity="0"/>
</linearGradient>
<radialGradient id="paint13_radial_203_590" cx="0" cy="0" r="1" gradientUnits="userSpaceOnUse" gradientTransform="translate(15.4984 67.0133) rotate(-88.8767) scale(9.36508 8.46868)">
<stop stop-color="#DA725B"/>
<stop offset="1" stop-color="#DA725B" stop-opacity="0"/>
</radialGradient>
<radialGradient id="paint14_radial_203_590" cx="0" cy="0" r="1" gradientUnits="userSpaceOnUse" gradientTransform="translate(24.9958 48.2862) rotate(136.229) scale(7.56377 7.31505)">
<stop stop-color="#FFE43E"/>
<stop offset="1" stop-color="#FFE43E" stop-opacity="0"/>
</radialGradient>
<linearGradient id="paint15_linear_203_590" x1="31.4695" y1="57.8247" x2="17.2226" y2="71.5605" gradientUnits="userSpaceOnUse">
<stop stop-color="#FFBC41"/>
<stop offset="1" stop-color="#E69429"/>
</linearGradient>
<linearGradient id="paint16_linear_203_590" x1="30.1888" y1="70.9994" x2="27.0104" y2="67.6154" gradientUnits="userSpaceOnUse">
<stop stop-color="#E08407"/>
<stop offset="1" stop-color="#E08407" stop-opacity="0"/>
</linearGradient>
<radialGradient id="paint17_radial_203_590" cx="0" cy="0" r="1" gradientUnits="userSpaceOnUse" gradientTransform="translate(22.1988 75.9168) rotate(-83.0945) scale(12.216 14.4361)">
<stop stop-color="#E8766E"/>
<stop offset="1" stop-color="#E8766E" stop-opacity="0"/>
</radialGradient>
<radialGradient id="paint18_radial_203_590" cx="0" cy="0" r="1" gradientUnits="userSpaceOnUse" gradientTransform="translate(33.2161 56.3661) rotate(136.026) scale(7.12344 6.88926)">
<stop stop-color="#FFE43E"/>
<stop offset="1" stop-color="#FFE43E" stop-opacity="0"/>
</radialGradient>
<linearGradient id="paint19_linear_203_590" x1="45.1878" y1="75.0825" x2="33.5817" y2="86.2832" gradientUnits="userSpaceOnUse">
<stop stop-color="#FFBC41"/>
<stop offset="1" stop-color="#E69429"/>
</linearGradient>
<linearGradient id="paint20_linear_203_590" x1="35.4177" y1="76.7451" x2="39.5448" y2="79.4124" gradientUnits="userSpaceOnUse">
<stop offset="0.156" stop-color="#E08407"/>
<stop offset="1" stop-color="#E08407" stop-opacity="0"/>
</linearGradient>
<radialGradient id="paint21_radial_203_590" cx="0" cy="0" r="1" gradientUnits="userSpaceOnUse" gradientTransform="translate(37.5297 90.6043) rotate(-84.1036) scale(10.7229 12.6908)">
<stop stop-color="#E8766E"/>
<stop offset="1" stop-color="#E8766E" stop-opacity="0"/>
</radialGradient>
<radialGradient id="paint22_radial_203_590" cx="0" cy="0" r="1" gradientUnits="userSpaceOnUse" gradientTransform="translate(46.6095 73.8928) rotate(136.071) scale(5.80652 5.61531)">
<stop stop-color="#FFE43E"/>
<stop offset="1" stop-color="#FFE43E" stop-opacity="0"/>
</radialGradient>
<linearGradient id="paint23_linear_203_590" x1="38.6076" y1="66.3346" x2="25.6444" y2="78.8513" gradientUnits="userSpaceOnUse">
<stop stop-color="#FFBC41"/>
<stop offset="1" stop-color="#E69429"/>
</linearGradient>
<linearGradient id="paint24_linear_203_590" x1="38.2639" y1="79.0393" x2="35.5585" y2="76.1429" gradientUnits="userSpaceOnUse">
<stop stop-color="#E08407"/>
<stop offset="1" stop-color="#E08407" stop-opacity="0"/>
</linearGradient>
<radialGradient id="paint25_radial_203_590" cx="0" cy="0" r="1" gradientUnits="userSpaceOnUse" gradientTransform="translate(30.1602 82.7915) rotate(-83.082) scale(11.1125 13.1558)">
<stop stop-color="#E8766E"/>
<stop offset="1" stop-color="#E8766E" stop-opacity="0"/>
</radialGradient>
<radialGradient id="paint26_radial_203_590" cx="0" cy="0" r="1" gradientUnits="userSpaceOnUse" gradientTransform="translate(40.195 65.0088) rotate(136.08) scale(6.48603 6.27238)">
<stop stop-color="#FFE43E"/>
<stop offset="1" stop-color="#FFE43E" stop-opacity="0"/>
</radialGradient>
<radialGradient id="paint27_radial_203_590" cx="0" cy="0" r="1" gradientUnits="userSpaceOnUse" gradientTransform="translate(56.3353 50.2137) rotate(-33.6901) scale(35.6275 55.9949)">
<stop offset="0.361" stop-color="#FFE949" stop-opacity="0"/>
<stop offset="1" stop-color="#FFE949"/>
</radialGradient>
<radialGradient id="paint28_radial_203_590" cx="0" cy="0" r="1" gradientUnits="userSpaceOnUse" gradientTransform="translate(32.1656 31.5341) rotate(-21.4028) scale(12.6927 20.3818)">
<stop stop-color="#EE9226"/>
<stop offset="1" stop-color="#EE9226" stop-opacity="0"/>
</radialGradient>
<radialGradient id="paint29_radial_203_590" cx="0" cy="0" r="1" gradientUnits="userSpaceOnUse" gradientTransform="translate(54.9427 50.833) rotate(-38.55) scale(25.2698 24.1152)">
<stop stop-color="#F7A91E"/>
<stop offset="1" stop-color="#F7A91E" stop-opacity="0"/>
</radialGradient>
<radialGradient id="paint30_radial_203_590" cx="0" cy="0" r="1" gradientUnits="userSpaceOnUse" gradientTransform="translate(59.4226 45.5842) rotate(-35.9316) scale(33.9405 53.103)">
<stop offset="0.661" stop-color="#FFEA49" stop-opacity="0"/>
<stop offset="1" stop-color="#FFEA49"/>
</radialGradient>
</defs>
</svg>
